<?xml version="1.0" encoding="utf-8"?><!--Generator: Adobe Illustrator 21.0.2, SVG Export Plug-In . SVG Version: 6.00 Build 0)--><svg version="1.1" id="Layer_1" xmlns="http://www.w3.org/2000/svg" xmlns:xlink="http://www.w3.org/1999/xlink" x="0px" y="0px" viewBox="0 0 278 75" style="enable-background:new 0 0 278 75;" xml:space="preserve"><style type="text/css">.st0{fill:white;}</style><g><path class="st0" d="M275.8,40.7l-19-17.7c-0.8-0.7-1.9-1.1-3-1s-2.1,0.6-2.8,1.5l-1.3,1.6c-1.2,1.6-1,3.8,0.4,5.2L265,43.6
		l-14.9,13.3c-1.5,1.3-1.7,3.6-0.4,5.2l1.3,1.6c0.7,0.8,1.7,1.4,2.8,1.5c0.1,0,0.2,0,0.3,0c1,0,2-0.4,2.7-1l19-17.7
		c0.8-0.7,1.2-1.7,1.2-2.8S276.6,41.5,275.8,40.7z"/><path class="st0" d="M250.4,2c-0.6-0.9-1.7-1.5-2.9-1.5h-3.9c-1.4,0-2.7,0.8-3.2,2L209.3,71c-0.5,1-0.3,2.2,0.3,3.1
		s1.7,1.5,2.9,1.5h3.9c1.4,0,2.7-0.8,3.2-2L250.7,5C251.2,4,251.1,2.9,250.4,2z"/><path class="st0" d="M189.7,60.1c-1.3,0.3-2.4,0.4-3.3,0.4c-1.4,0-2.3-0.6-3-1.7c-0.6-1.2-1-2.6-1.2-4.5c-0.1-1.8-0.2-4.4-0.2-7.7
		V34h11.4v-7h-12l0.1-11h-6c-0.8,2.5-1.5,4.4-2.1,5.8s-1.3,2.6-2.2,3.5c-1.5,1.5-3.7,3.2-6.8,3.7v5h5.4v20.4c0,3.2,0.3,5.8,0.9,7.8
		c0.6,2,1.6,3.4,3.1,4.4s3.5,1.4,6.2,1.4c2.8,0,5.5-0.4,8.2-1.2c2.7-0.8,4.8-1.9,6.2-3.4l-1.9-4.2C192,59.5,191.1,59.8,189.7,60.1z"/><path class="st0" d="M159.5,41.4c0-5.5-0.9-9.6-2.7-12.3S152,25,147.6,25c-2.6,0-5.3,0.5-8.1,1.6s-5.1,2.6-7,4.5v-5.5l-2.7-0.7
		l-13.3,4v4.6l4.9,3.5l0.1,22.7l-4.6,2.2V67h21.7v-4.9l-4.3-2.2l-0.1-24.7c0.4-0.3,1.3-0.7,2.6-1.1c1.3-0.4,2.2-0.6,2.9-0.6
		c2.1,0,3.6,0.3,4.6,0.8s1.7,1.5,2,2.8s0.5,3.3,0.5,6v16.7l-5.2,2.2v5h22.9v-4.9l-5-2.2V41.4z"/><path class="st0" d="M93.4,25c-6.6,0.2-11.9,2.2-15.8,5.9c-3.9,3.8-5.9,9-6.1,15.7c-0.1,6.7,1.7,12,5.3,15.7
		c3.6,3.8,8.8,5.6,15.5,5.6c4.3,0,8.1-0.9,11.3-2.8c3.2-1.8,5.8-4.5,7.6-7.9c1.8-3.4,2.3-8.1,2.3-12.7c0-6.6-1.4-10.9-4.9-14.4
		C105.1,26.8,100,25,93.4,25z M98.9,58.1c-1.1,3-3.1,4.6-6.1,4.6c-2.8,0-4.8-1.7-6-5.1c-1.2-3.4-1.8-7.4-1.8-12s0.6-8.3,1.9-11
		c1.2-2.8,3.3-4.2,6.2-4.2c2.7,0,4.7,1.5,5.8,4.4c1.1,3,1.7,6.7,1.7,11.3C100.5,51,100,55,98.9,58.1z"/><path class="st0" d="M67.3,26.6c-1.2-1-2.7-1.6-4.2-1.6c-2.1-0.1-3.5,0.1-4.3,0.5c-0.6,0.2-1.2,0.4-1.8,0.7c-1.5,0.7-2.8,1.7-4,2.9
		c-1.2,1.2-1.9,2.5-2.3,3.8v-7.1L48,25.1l-13.5,4V34l4.9,3.2V60l-4.5,2.1V67h26v-4.9L52.5,60l-0.1-23.3c0.5-0.3,1.4-0.7,2.6-0.9
		c0.6-0.1,1.1-0.2,1.7-0.3c1,3.1,4.5,4.5,7,4.5c3.1,0,7.5-2,6.9-8C70.4,29.8,69,27.9,67.3,26.6z"/><path class="st0" d="M30.6,21c3.2,0,7.8-2,7.2-8.2c-0.3-3.1-3-5.7-5.8-6.7l0,0c-0.7-0.3-1.9-0.6-3.4-0.8C27,5.1,25.6,5,24.3,5
		c-3.1,0-6.1,0.9-8.8,2.7C12.8,9.6,10.6,12,9,14.9c-1.6,3-2.5,6-2.5,9.1v3L0,29v5l6.9-0.1L7,60l-6,2v5h27v-5l-9-2V34h11v-7H19.2
		v-6.8c0-2.5,0.3-4.3,0.9-5.3c0.5-0.8,1.5-1.3,2.9-1.4C22.3,18.6,27.3,21,30.6,21z"/></g></svg>
