<?xml version="1.0" encoding="utf-8"?>
<!-- Generator: Adobe Illustrator 19.2.1, SVG Export Plug-In . SVG Version: 6.00 Build 0)  -->
<svg version="1.1" id="Layer_1" xmlns="http://www.w3.org/2000/svg" xmlns:xlink="http://www.w3.org/1999/xlink" x="0px" y="0px"
	 width="308px" height="63px" viewBox="0 0 308 63" enable-background="new 0 0 308 63" xml:space="preserve">
<g>
	<g>
		<path fill="#025404" d="M131.397,30.696v-6.973c-5.129,4.313-9.789,8.977-14.334,13.336l-8.618,8.415
			c-3.114,3.117-3.114,8.161,0,11.281c3.117,3.111,8.167,3.111,11.28,0c0,0,5.361-5.07,8.117-8.021c0-0.002,0.005,0,0.005,0
			c1.871-1.78,4.003-3.988,6.36-6.397c4.174-4.046,8.865-8.185,13.958-11.64H131.397z"/>
		<g>
			<path fill="#01454C" d="M91.323,56.754c-3.114,3.111-8.162,3.111-11.277,0l0,0c-3.119-3.119-3.115-8.163,0-11.28l36.139-35.707
				c3.113-3.115,8.163-3.115,11.28,0l0,0c3.115,3.117,3.115,8.165,0,11.279L91.323,56.754z"/>
			<path fill="#08C3BE" d="M99.559,48.62l16.57-16.372H93.433L80.046,45.474c-0.911,0.912-1.525,1.998-1.907,3.145H99.559z"/>
			<path fill="#12F8E6" d="M116.185,9.767l-6.407,6.327h19.957c0.195-2.262-0.535-4.592-2.27-6.327
				C124.349,6.652,119.298,6.652,116.185,9.767z"/>
			<path fill="#08C3BE" d="M109.888,15.988l-16.456,16.26h22.696l11.336-11.201c1.408-1.409,2.147-3.217,2.28-5.059H109.888z"/>
			<path fill="#01686D" d="M85.117,40.46l-5.071,5.014c-0.911,0.912-1.525,1.998-1.907,3.145h7.111v-8.16H85.117z"/>
			<polygon fill="#12F8E6" points="107.872,40.404 109.807,38.492 109.807,32.247 101.622,32.247 101.622,40.404 			"/>
			<polygon fill="#01454C" points="85.25,40.404 93.435,40.404 93.435,32.247 93.433,32.247 85.25,40.33 			"/>
			<polygon fill="#049898" points="101.651,40.46 93.462,40.46 93.462,48.62 99.559,48.62 101.651,46.55 			"/>
			<path fill="#012628" d="M85.25,59.045v-2.291h-5.204C81.493,58.2,83.356,58.943,85.25,59.045z"/>
			<path fill="#049898" d="M93.435,48.62H85.25v8.154h6.049c0.005-0.006,0.014-0.01,0.024-0.019l2.112-2.09V48.62z"/>
			<polygon fill="#01686D" points="109.805,32.247 116.129,32.247 117.992,30.405 117.992,24.091 109.805,24.091 			"/>
			<polygon fill="#12F8E6" points="93.435,32.247 101.62,32.247 101.62,24.158 93.435,32.243 			"/>
			<path fill="#049898" d="M109.888,15.988h8.104V8.454c-0.643,0.354-1.262,0.771-1.807,1.313L109.888,15.988z"/>
			<polygon fill="#12F8E6" points="109.807,24.144 109.807,16.071 101.637,24.144 			"/>
		</g>
		<path fill="#370344" d="M57.104,7.484c-4.472,0-8.095,3.627-8.095,8.098v0.157c0,4.471,3.623,8.097,8.095,8.097
			c4.47,0,8.095-3.626,8.095-8.097v-0.157C65.2,11.111,61.574,7.484,57.104,7.484z M57.104,24.422c-4.472,0-8.095,3.627-8.095,8.095
			v18.429c0,4.47,3.623,8.094,8.095,8.094c4.228,0,8.095-3.625,8.095-8.094V32.517C65.2,28.049,61.574,24.422,57.104,24.422z"/>
		<path fill="#FF2E2E" d="M62.623,56.754c-3.113,3.111-8.162,3.111-11.276,0l0,0c-3.117-3.119-3.117-8.163,0-11.28L87.485,9.767
			c3.114-3.115,8.167-3.115,11.28,0l0,0c3.118,3.117,3.114,8.165,0,11.279L62.623,56.754z"/>
		<path fill="#85189F" d="M49.027,32.247h8.016v-7.823C52.692,24.458,49.165,27.924,49.027,32.247z"/>
		<path fill="#370344" d="M57.104,24.422c-0.021,0-0.039,0.003-0.061,0.003v7.823h8.142C65.039,27.903,61.483,24.422,57.104,24.422z
			 M57.017,24.428v0.002c0,0,0.015-0.005,0.026-0.005l0,0C57.031,24.425,57.024,24.428,57.017,24.428z"/>
		<path fill="#5C0B70" d="M65.186,32.247h-8.143V48.62H65.2V32.517C65.2,32.426,65.191,32.339,65.186,32.247z"/>
		<path fill="#611075" d="M51.982,26.253c-0.195,0.157-0.387,0.33-0.565,0.507C51.596,26.584,51.787,26.411,51.982,26.253z"/>
		<path fill="#690B7F" d="M49.021,15.988c0.13,4.333,3.662,7.81,8.022,7.842v-7.842H49.021z"/>
		<rect x="49.009" y="40.404" fill="#9721B4" width="8.034" height="8.215"/>
		<path fill="#690B7F" d="M49.009,32.517v7.887h8.034v-8.157h-8.022C49.019,32.339,49.009,32.426,49.009,32.517z"/>
		<path fill="#950909" d="M49.443,48.62h7.601v-8.773l-5.697,5.628C50.433,46.386,49.821,47.473,49.443,48.62z"/>
		<polygon fill="#EE1111" points="57.043,39.846 57.043,40.404 65.228,40.404 65.228,32.249 64.734,32.249 		"/>
		<polygon fill="#560E68" points="64.734,32.249 65.228,32.249 65.228,31.759 		"/>
		<polygon fill="#600707" points="65.228,48.62 70.858,48.62 73.417,46.094 73.417,40.404 65.228,40.404 		"/>
		<rect x="57.043" y="40.404" fill="#CD0D0D" width="8.185" height="8.215"/>
		<polygon fill="#EE1111" points="65.228,48.62 65.228,54.179 65.559,53.856 70.858,48.62 		"/>
		<path fill="#950909" d="M62.528,56.831c0.031-0.028,0.065-0.047,0.094-0.077l2.605-2.575V48.62h-8.185v8.212H62.528z"/>
		<path fill="#CD0D0D" d="M57.043,56.831v2.251c2.022-0.016,4.037-0.787,5.579-2.328c-0.03,0.03-0.063,0.05-0.094,0.077H57.043z"/>
		<path fill="#600707" d="M49.009,51.111v0.007c0,2.036,0.781,4.077,2.337,5.636c0.029,0.03,0.065,0.05,0.093,0.077h5.604V48.62
			h-7.601C49.177,49.428,49.009,50.268,49.009,51.111z"/>
		<rect x="65.228" y="32.249" fill="#FF3000" width="8.188" height="8.155"/>
		<polygon fill="#FFC100" points="65.228,31.759 65.228,32.249 73.417,32.249 73.417,23.671 		"/>
		<path fill="#FFC100" d="M81.184,15.988l-7.767,7.683v8.578h14.005l11.337-11.202c1.412-1.409,2.147-3.217,2.282-5.059H81.184z"/>
		<path fill="#FBF410" d="M98.765,9.767c-3.113-3.115-8.166-3.115-11.28,0l-6.293,6.221h19.847
			C101.204,13.756,100.472,11.475,98.765,9.767z"/>
		<rect x="73.417" y="24.091" fill="#FFE500" width="8.187" height="8.157"/>
		<path fill="#0BDC0B" d="M141.553,23.002h-3.715v3.714h3.715V23.002z M145.502,28.621h6.339v-6.339h-6.339V28.621z M147.518,19.692
			h5.736v-3.704h-5.736V19.692z M145.279,15.988h-3.743v3.033h3.743V15.988z M144.087,20.433h-3.968v-3.26
			c-6.809,4.434-12.663,9.863-18.187,15.184h23.882c1.088-0.806,2.193-1.585,3.324-2.322h-5.05V20.433z M142.968,28.132h-6.546
			v-6.545h6.546V28.132z M155.625,16.065v4.71h4.707v-4.71H155.625z"/>
		<path fill="#025404" d="M122.044,32.247c-1.684,1.622-13.599,13.226-13.599,13.226c-0.912,0.913-1.524,1.999-1.899,3.146h21.42
			c1.844-1.763,3.936-3.924,6.241-6.284c3.568-3.456,7.51-6.98,11.758-10.089H122.044z"/>
		<path fill="#14EC14" d="M161.248,15.982h3.746v-3.746h-3.746V15.982z M158.537,7.981h-4.459v4.461h4.459V7.981z M164.977,7.794
			h-3.441v3.442h3.441V7.794z M169.808,3.261h-3.445V6.7h3.445V3.261z M147.518,16.097h5.736v-2.137h-5.736V16.097z M155.625,16.097
			h4.707v-0.032h-4.707V16.097z M141.536,16.097h3.743v-0.824h-3.743V16.097z M186.956,3.541h2.548V1h-2.548V3.541z M182.685,4.773
			h2.906V1.868h-2.906V4.773z M191.599,1.049v2.108h2.107V1.049H191.599z M179.137,7.544h2.905V4.638h-2.905V7.544z M173.613,8.18
			h3.106V5.075h-3.106V8.18z M168.617,11.1h3.277V7.821h-3.277V11.1z M179.84,1.204h-2.907v2.906h2.907V1.204z"/>
		<path fill="#023005" d="M121.613,48.62h6.353c0.587-0.56,1.202-1.168,1.834-1.801v-6.414h-8.187V48.62z"/>
		<path fill="#06B906" d="M108.445,45.474c-0.912,0.913-1.524,1.999-1.899,3.146h6.91v-8.026
			C110.741,43.239,108.445,45.474,108.445,45.474z"/>
		<path fill="#047C04" d="M113.455,59.029v-2.275h-5.011C109.843,58.15,111.634,58.884,113.455,59.029z"/>
		<path fill="#0BDC0B" d="M121.641,40.404v-7.765c-1.386,1.337-4.919,4.778-7.992,7.765H121.641z"/>
		<path fill="#06B906" d="M136.249,40.404c0.578-0.544,1.166-1.079,1.765-1.615v-6.541h-8.187v8.157H136.249z"/>
		<path fill="#047C04" d="M113.455,56.773h6.243c0.011-0.006,0.019-0.014,0.026-0.019c0,0,0.788-0.748,1.917-1.833V48.62h-8.186
			V56.773z"/>
		<path fill="#079A07" d="M129.8,32.249v-7.164c-2.687,2.341-5.258,4.759-7.751,7.164H129.8z"/>
		<polygon fill="#FFE500" points="89.785,24.091 89.785,29.913 95.679,24.091 		"/>
		<rect x="81.629" y="15.988" fill="#FFA200" width="8.182" height="8.156"/>
		<path fill="#FBF410" d="M98.759,21.046c1.412-1.409,2.147-3.217,2.282-5.059h-3.068v5.836L98.759,21.046z"/>
		<polygon fill="#FBF410" points="81.604,32.249 73.417,32.249 73.417,40.404 79.173,40.404 81.604,38.005 		"/>
		<polygon fill="#FF7900" points="81.604,38.005 87.43,32.247 81.604,32.249 		"/>
		<path fill="#FFE500" d="M95.503,7.831h-4.755C90.422,7.932,90.1,8.05,89.785,8.195v7.793h8.189V9.116
			C97.214,8.534,96.383,8.104,95.503,7.831z"/>
		<path fill="#690B7F" d="M57.104,7.484c-0.021,0-0.045,0.005-0.066,0.005l0,0h0.005v8.499h8.148
			c0.003-0.083,0.009-0.164,0.009-0.249v-0.157C65.2,11.111,61.574,7.484,57.104,7.484z"/>
		<path fill="#85189F" d="M57.017,15.988h8.141c0.005-0.083,0.014-0.164,0.014-0.249v-0.157c0-3.659-2.427-6.749-5.758-7.752h-2.397
			V15.988z"/>
		<polygon fill="#FFC100" points="73.417,40.404 73.417,46.094 79.173,40.404 		"/>
		<path fill="#9721B4" d="M57.043,15.988v7.842c-0.012,0-0.019,0-0.019,0h-0.007c0.028,0,0.058,0.006,0.088,0.006
			c4.389,0,7.953-3.493,8.087-7.849H57.043z"/>
		<path fill="#82159D" d="M54.785,7.831h2.258V7.489C56.26,7.494,55.504,7.617,54.785,7.831z"/>
		<path fill="#560E68" d="M54.767,7.831c-3.329,1.003-5.758,4.092-5.758,7.752v0.157c0,0.084,0.008,0.166,0.012,0.249h7.995V7.831
			H54.767z"/>
	</g>
	<g>
		<g>
			<path fill="#FFFFFF" d="M181.949,39.593c0.636,0.595,1.541,0.89,2.704,0.89h1.35c1.313,0,2.264-0.274,2.856-0.821
				c0.594-0.547,0.889-1.426,0.889-2.635v-5.404c0-1.209-0.294-2.09-0.889-2.637c-0.592-0.547-1.543-0.82-2.856-0.82h-1.35
				c-1.315,0-2.266,0.273-2.857,0.82c-0.595,0.547-0.893,1.428-0.893,2.637v5.404c0.035,0.308,0.067,0.608,0.104,0.906
				C181.167,38.609,181.483,39.16,181.949,39.593z M182.685,31.525c0-0.597,0.1-1.008,0.307-1.238
				c0.205-0.227,0.582-0.341,1.131-0.341h0.254h1.92h0.254c0.541,0,0.903,0.115,1.107,0.351c0.196,0.235,0.295,0.644,0.295,1.228
				v5.632c0,0.577-0.101,0.975-0.307,1.203c-0.204,0.229-0.577,0.346-1.113,0.346h-0.237h-1.92h-0.254
				c-0.541,0-0.911-0.117-1.124-0.354c-0.211-0.235-0.314-0.644-0.314-1.227V31.525z M206.74,28.166v9.247
				c0,1.841,0.913,2.867,2.739,3.071h0.51h4.637v-1.778h-4.668c-0.515,0-0.884-0.11-1.106-0.316
				c-0.221-0.213-0.332-0.554-0.332-1.022v-9.202H206.74z M168.19,29.946l2.755,9.188c0.162,0.57,0.362,0.961,0.611,1.179
				c0.241,0.217,0.588,0.324,1.035,0.324c0.43,0,0.77-0.112,1.015-0.332c0.247-0.224,0.447-0.614,0.609-1.172l2.753-9.188v10.538
				h1.781V29.946c0-0.513-0.067-0.899-0.208-1.165c-0.132-0.264-0.343-0.464-0.632-0.602c-0.378-0.169-0.72-0.254-1.024-0.254
				c-0.804,0-1.35,0.514-1.646,1.54l-2.694,9.044l-2.622-9.044c-0.306-1.026-0.851-1.54-1.626-1.54
				c-0.322,0-0.668,0.086-1.048,0.254c-0.557,0.251-0.837,0.836-0.837,1.767v10.538h1.777V29.946z M204.585,40.484V28.166h-1.781
				v12.318H204.585z M200.186,39.593c0.387-0.5,0.582-1.267,0.582-2.292v-1.146c0-0.174-0.014-0.301-0.033-0.396
				c-0.139-0.739-0.481-1.235-1.027-1.487c0.274-0.171,0.499-0.393,0.676-0.666c0.179-0.278,0.292-0.603,0.351-0.976
				c0.019-0.093,0.033-0.215,0.033-0.381v-1.485c0-0.284-0.058-0.575-0.172-0.871c-0.455-1.156-1.271-1.729-2.446-1.729h-6.244
				v12.318h6.04C198.984,40.484,199.731,40.188,200.186,39.593z M193.651,29.946h4.081h0.223c0.688,0.138,1.035,0.509,1.035,1.122
				v1.191c0,0.437-0.177,0.78-0.532,1.017c-0.197,0.13-0.427,0.195-0.69,0.195h-4.116V29.946z M193.651,38.706v-3.458h4.098
				c0.161,0,0.349,0.046,0.568,0.137c0.452,0.225,0.672,0.512,0.672,0.855v1.162c0,0.208-0.063,0.419-0.19,0.636
				c-0.24,0.443-0.603,0.667-1.084,0.667H193.651z M216.662,28.917c-0.57,0.501-0.856,1.279-0.856,2.328v5.934
				c0,1.085,0.281,1.907,0.842,2.466c0.557,0.563,1.367,0.838,2.427,0.838h4.773v-1.778h-4.292c-0.64,0-1.074-0.045-1.301-0.14
				c-0.229-0.088-0.422-0.296-0.584-0.617c-0.056-0.138-0.083-0.259-0.083-0.362v-0.774v-1.649h6.296v-1.783h-6.296v-2.085v-0.323
				c0.08-0.391,0.23-0.662,0.454-0.808c0.224-0.149,0.433-0.22,0.629-0.22h0.74h4.491v-1.78h-4.501
				C218.149,28.166,217.233,28.415,216.662,28.917z"/>
			<path fill="#FFFFFF" d="M180.185,14.148h2.651v10.543h1.794V14.148h2.675v-1.781h-7.12V14.148z M177.206,22.527l-3.708-9.028
				c-0.149-0.364-0.31-0.638-0.482-0.814c-0.169-0.177-0.362-0.29-0.571-0.34c-0.213-0.053-0.335-0.077-0.369-0.077
				c-0.091,0-0.177,0-0.258,0c-0.979,0-1.47,0.607-1.47,1.827v10.595h1.781v-9.978l3.729,8.889c0.351,0.834,0.856,1.251,1.513,1.251
				c0.024,0,0.065,0,0.121,0c0.032,0,0.073-0.004,0.118-0.015c0.41-0.047,0.744-0.221,1.006-0.521
				c0.258-0.304,0.391-0.673,0.391-1.103V12.367h-1.8V22.527z M166.413,24.691h1.777V12.367h-1.777V24.691z M189.341,13.122
				c-0.573,0.502-0.857,1.278-0.857,2.326v5.937c0,1.085,0.28,1.906,0.84,2.464c0.558,0.56,1.368,0.842,2.431,0.842h4.774v-1.779
				h-4.297c-0.642,0-1.071-0.045-1.301-0.142c-0.225-0.089-0.42-0.295-0.581-0.615c-0.06-0.141-0.086-0.26-0.086-0.363v-0.774
				v-1.649h6.296v-1.78h-6.296v-2.086v-0.325c0.081-0.387,0.233-0.658,0.456-0.804c0.221-0.149,0.431-0.225,0.628-0.225h0.739h4.488
				v-1.781h-4.496C190.824,12.367,189.912,12.621,189.341,13.122z M220.807,13.122c-0.571,0.502-0.858,1.278-0.858,2.326v5.937
				c0,1.085,0.278,1.906,0.838,2.464c0.557,0.56,1.37,0.842,2.429,0.842h4.777v-1.779h-4.297c-0.637,0-1.073-0.045-1.298-0.142
				c-0.23-0.089-0.425-0.295-0.581-0.615c-0.061-0.141-0.087-0.26-0.087-0.363v-0.774v-1.649h6.297v-1.78h-6.297v-2.086v-0.325
				c0.078-0.387,0.23-0.658,0.454-0.804c0.224-0.149,0.435-0.225,0.627-0.225h0.742h4.488v-1.781h-4.5
				C222.287,12.367,221.377,12.621,220.807,13.122z M204.977,19.452c0.8,0,1.448-0.375,1.947-1.13
				c0.268-0.396,0.399-0.82,0.399-1.266v-2.122c0-0.489-0.074-0.883-0.22-1.179c-0.153-0.299-0.437-0.602-0.857-0.915
				c-0.423-0.313-0.929-0.473-1.525-0.473h-6.23v12.324h1.783V14.148h4.171h0.189c0.513,0.082,0.814,0.388,0.891,0.917v0.223v1.381
				c0,0.555-0.324,0.891-0.975,1.004h-0.171h-2.686h-0.308c-0.538,0.105-0.86,0.391-0.976,0.855
				c-0.036,0.142-0.051,0.268-0.051,0.383c0,0.258,0.051,0.433,0.153,0.541l4.537,5.234l2.368-0.005l-4.547-5.226L204.977,19.452z
				 M228.983,12.367v1.781h2.652v10.543h1.798V14.148h2.668v-1.781H228.983z M215.994,22.527l-3.708-9.028
				c-0.149-0.364-0.31-0.638-0.482-0.814c-0.17-0.177-0.362-0.29-0.572-0.34c-0.212-0.053-0.334-0.077-0.37-0.077
				c-0.09,0-0.174,0-0.255,0c-0.979,0-1.468,0.607-1.468,1.827v10.595h1.775v-9.978l3.73,8.889c0.352,0.834,0.857,1.251,1.516,1.251
				c0.024,0,0.061,0,0.119,0c0.033,0,0.074-0.004,0.123-0.015c0.403-0.047,0.741-0.221,1.003-0.521
				c0.256-0.304,0.39-0.673,0.39-1.103V12.367h-1.8V22.527z"/>
			<path fill="#FFFFFF" d="M257.191,36.786c0,0,1.239-1.781,1.239-4.411l0.094-5.098l-2.42-0.093l-0.003,4.25
				c0,1.283-0.246,2.975-0.7,3.468l-1.188-1.16l-7.483-7.475l1.139-0.67l3.726-2.206c0.202-0.108,0.42-0.284,0.668-0.538
				c1.097-0.993,1.653-2.001,1.653-2.994v-3.008c0-0.646-0.273-1.395-0.809-2.223c-1.021-1.591-2.587-2.361-4.79-2.361h-3.515
				c-1.31,0-2.345,0.15-3.077,0.45c-0.663,0.285-1.272,0.761-1.801,1.415c-0.47,0.63-0.779,1.143-0.945,1.572
				c-0.16,0.391-0.242,0.762-0.242,1.11v2.499l-0.002,0.473c0.09,0.896,0.363,1.655,0.796,2.247l0.356,0.435l1.071,1.205
				l-0.007,0.003l2.007,2.009l-0.631,0.374l-0.598,0.353l-3.074,1.801c-0.252,0.137-0.465,0.285-0.58,0.405
				c-0.162,0.194-0.336,0.453-0.532,0.789c-0.308,0.549-0.522,1.017-0.659,1.437c-0.113,0.33-0.178,0.638-0.178,0.846v3.383
				c0,0.808,0.255,1.644,0.757,2.493c0.514,0.844,1.214,1.528,2.073,2.03c1.19,0.701,2.235,1.04,3.197,1.04h7.777
				c1.424,0,2.718-0.302,3.858-0.899c0.314-0.164,1.466-1.074,1.466-1.074l1.92,1.972h0.405h2.839L257.191,36.786z M241.027,17.872
				c0-0.654,0.265-1.333,0.81-2.071c0.455-0.585,1.144-0.986,2.045-1.184l0.098-0.017h0.001h0.004h0.099h0.419h3.635
				c1.335,0,2.262,0.464,2.752,1.375c0.421,0.741,0.617,1.316,0.617,1.819v1.053c0,0.358-0.062,0.723-0.185,1.152
				c-0.182,0.532-0.501,0.929-0.891,1.12l-3.4,2.142l-2.052,1.262l-0.778-0.778c-0.471-0.497-0.823-0.877-1.043-1.118
				c-1.342-1.459-1.433-1.687-1.499-1.856l-0.5-1.197l-0.133-0.855V17.872z M253.994,36.851c0,0-0.676,0.931-1.89,1.12
				c-0.382,0.06-0.6,0.079-1.447,0.079h-7.922c-1.478,0-2.514-0.459-3.082-1.36c-0.49-0.75-0.739-1.451-0.739-2.086v-1.858
				c0-0.649,0.231-1.305,0.686-1.946l0.214-0.307c0.14-0.198,0.175-0.246,0.202-0.251c0.196-0.201,0.416-0.374,0.62-0.493
				l3.298-1.99l0.2-0.117l0.51-0.272L253.994,36.851z"/>
			<g>
				<g>
					<g>
						<path fill="#FFFFFF" d="M186.606,43.778h-1.324c-1.288,0-2.227,0.27-2.812,0.811c-0.581,0.541-0.869,1.396-0.869,2.587v5.308
							c0.032,0.304,0.068,0.597,0.102,0.893c0.158,0.66,0.464,1.203,0.921,1.626c0.628,0.585,1.509,0.877,2.658,0.877h1.324
							c1.289,0,2.224-0.27,2.807-0.811c0.583-0.539,0.876-1.398,0.876-2.585v-5.308c0-1.19-0.293-2.046-0.876-2.587
							C188.83,44.048,187.895,43.778,186.606,43.778z M188.526,52.613c0,0.562-0.105,0.953-0.303,1.18
							c-0.203,0.224-0.565,0.339-1.097,0.339h-0.234h-1.883h-0.248c-0.532,0-0.898-0.116-1.104-0.344
							c-0.203-0.23-0.313-0.637-0.313-1.209v-5.497c0-0.586,0.105-0.99,0.304-1.213c0.202-0.228,0.569-0.338,1.112-0.338h0.248
							h1.883h0.254c0.525,0,0.886,0.116,1.082,0.344c0.199,0.229,0.297,0.633,0.297,1.208V52.613z M176.466,53.318l-1.652-8.275
							c-0.032-0.192-0.089-0.365-0.165-0.534c-0.069-0.167-0.136-0.299-0.205-0.398c-0.258-0.343-0.604-0.515-1.047-0.515
							c-0.434,0-0.78,0.172-1.04,0.515c-0.171,0.241-0.293,0.555-0.37,0.932l-1.649,8.275l-2.138-9.54h-1.788l2.449,10.955
							c0.13,0.595,0.431,0.988,0.913,1.18c0.149,0.056,0.251,0.09,0.319,0.1c0.068,0.01,0.17,0.016,0.305,0.016
							c0.352,0,0.65-0.116,0.897-0.35c0.248-0.234,0.411-0.548,0.491-0.94l1.61-8.1l1.619,8.1c0.094,0.411,0.257,0.734,0.49,0.955
							c0.24,0.224,0.526,0.335,0.876,0.335c0.229,0,0.441-0.035,0.643-0.116c0.486-0.191,0.788-0.585,0.915-1.18l2.447-10.955H178.6
							L176.466,53.318z M204.927,53.819c-0.214-0.206-0.324-0.541-0.324-1.003v-9.038h-1.744v9.083c0,1.809,0.891,2.813,2.687,3.019
							h0.502h4.552v-1.748h-4.583C205.51,54.131,205.149,54.025,204.927,53.819z M198.771,50.734c0.78,0,1.423-0.368,1.915-1.106
							c0.257-0.392,0.387-0.804,0.387-1.243v-2.087c0-0.478-0.073-0.87-0.217-1.156c-0.147-0.291-0.425-0.593-0.84-0.902
							c-0.413-0.308-0.911-0.462-1.497-0.462h-6.116V55.88h1.747v-10.35h4.099h0.188c0.499,0.077,0.8,0.379,0.875,0.901v0.214v1.36
							c0,0.545-0.32,0.87-0.961,0.983h-0.166h-2.639h-0.302c-0.525,0.103-0.843,0.383-0.958,0.84
							c-0.033,0.142-0.05,0.264-0.05,0.378c0,0.254,0.05,0.427,0.149,0.53l4.453,5.146l2.331-0.007l-4.465-5.132L198.771,50.734z
							 M217.926,43.778h-6.165V55.88h5.851c0.194,0,0.387-0.023,0.583-0.071c0.198-0.046,0.413-0.119,0.635-0.233
							c0.933-0.436,1.474-1.199,1.635-2.286v-0.489v-6.213c0-0.841-0.241-1.521-0.724-2.034
							C219.26,44.04,218.658,43.778,217.926,43.778z M218.717,46.904v5.766c0,0.972-0.406,1.461-1.21,1.461h-4v-8.602h3.963
							c0.436,0,0.741,0.08,0.914,0.244c0.183,0.161,0.29,0.453,0.333,0.877V46.904z"/>
					</g>
					<g>
						<path fill="#FFFFFF" d="M227.723,55.863v-3.757c0-0.843,0.255-1.547,0.765-2.114c0.51-0.567,1.14-0.85,1.891-0.85h2.52
							c0.224,0,0.42-0.089,0.589-0.267c0.167-0.179,0.251-0.385,0.251-0.619v-1.722c0-0.68-0.296-1.021-0.891-1.021h-5.125v-1.764
							h4.99c0.796,0,1.456,0.235,1.984,0.705c0.525,0.472,0.79,1.065,0.79,1.782v2.05c0,0.728-0.255,1.347-0.765,1.857
							c-0.51,0.509-1.124,0.764-1.84,0.764h-2.319c-0.146,0-0.302,0.033-0.47,0.101c-0.169,0.067-0.297,0.145-0.387,0.235
							c-0.135,0.157-0.201,0.398-0.201,0.722v2.134h5.982v1.764H227.723z"/>
						<path fill="#FFFFFF" d="M241.132,55.863c-0.851,0-1.447-0.056-1.789-0.168c-0.342-0.112-0.698-0.358-1.067-0.74
							c-0.303-0.313-0.516-0.657-0.638-1.033c-0.124-0.375-0.184-0.86-0.184-1.453v-5.327c0-0.583,0.06-1.061,0.184-1.437
							c0.123-0.375,0.335-0.72,0.638-1.034c0.37-0.392,0.725-0.643,1.067-0.756c0.342-0.112,0.938-0.167,1.789-0.167h1.311
							c0.851,0,1.451,0.056,1.798,0.167c0.347,0.113,0.706,0.364,1.075,0.756c0.302,0.314,0.515,0.656,0.639,1.026
							c0.124,0.37,0.185,0.852,0.185,1.445v5.327c0,0.616-0.056,1.101-0.167,1.453c-0.113,0.353-0.331,0.698-0.656,1.033
							c-0.369,0.382-0.725,0.628-1.067,0.74c-0.342,0.112-0.944,0.168-1.806,0.168H241.132z M239.2,52.552
							c0,0.605,0.112,1.014,0.337,1.227c0.223,0.213,0.667,0.319,1.328,0.319h1.898c0.628,0,1.056-0.109,1.287-0.328
							c0.229-0.218,0.343-0.624,0.343-1.219v-5.495c0-0.605-0.112-1.014-0.335-1.226c-0.225-0.212-0.656-0.32-1.295-0.32h-1.898
							c-0.64,0-1.076,0.108-1.311,0.32c-0.235,0.212-0.353,0.621-0.353,1.226V52.552z"/>
						<path fill="#FFFFFF" d="M248.106,55.863V43.747h1.747v12.116H248.106z"/>
						<path fill="#FFFFFF" d="M259.916,48.822c-0.276-0.269-0.602-0.46-0.974-0.586c-0.325-0.11-0.683-0.17-1.082-0.17h-2.987
							h-0.232h-0.891v-0.121v-0.888c0-0.605,0.118-1.014,0.353-1.226c0.123-0.111,0.305-0.192,0.538-0.245
							c0.213-0.049,0.468-0.075,0.773-0.075h1.898c0.639,0,1.069,0.108,1.295,0.32c0.223,0.213,0.335,0.621,0.335,1.226v0.01h1.744
							c-0.006-0.557-0.063-1.018-0.181-1.371c-0.021-0.064-0.061-0.123-0.088-0.185c-0.128-0.297-0.301-0.581-0.551-0.84
							c-0.369-0.392-0.728-0.643-1.075-0.756c-0.347-0.112-0.947-0.168-1.798-0.168h-1.311c-0.851,0-1.447,0.056-1.789,0.168
							c-0.321,0.106-0.655,0.345-1,0.696c-0.023,0.023-0.044,0.035-0.067,0.06c-0.303,0.314-0.516,0.659-0.639,1.034
							c-0.124,0.376-0.184,0.854-0.184,1.437v5.327c0,0.594,0.06,1.078,0.184,1.453c0.123,0.376,0.335,0.72,0.639,1.033
							c0.023,0.024,0.044,0.036,0.067,0.058c0.345,0.342,0.679,0.577,1,0.682c0.342,0.112,0.938,0.168,1.789,0.168h1.311h0.83
							c0.86,0,1.554-0.257,2.078-0.774c0.526-0.515,0.788-1.187,0.788-2.016v-0.605v-1.664
							C260.691,49.987,260.433,49.326,259.916,48.822z M255.415,54.098c-0.661,0-1.105-0.106-1.328-0.319
							c-0.224-0.213-0.336-0.621-0.336-1.227V49.83h4.051c0.758,0,1.138,0.366,1.141,1.096v1.626c0,0.594-0.114,1-0.343,1.218
							c-0.23,0.218-0.659,0.328-1.287,0.328H255.415z"/>
					</g>
				</g>
			</g>
		</g>
	</g>
</g>
</svg>
