<?xml version="1.0" encoding="utf-8"?>
<!-- Generator: Adobe Illustrator 19.2.1, SVG Export Plug-In . SVG Version: 6.00 Build 0)  -->
<svg version="1.1" id="Layer_1" xmlns="http://www.w3.org/2000/svg" xmlns:xlink="http://www.w3.org/1999/xlink" x="0px" y="0px"
	 width="308px" height="126.5px" viewBox="0 0 308 126.5" enable-background="new 0 0 308 126.5" xml:space="preserve">
<g>
	<g>
		<path fill="#025404" d="M131.397,30.696v-6.973c-5.129,4.313-9.789,8.977-14.334,13.336l-8.618,8.415
			c-3.114,3.117-3.114,8.161,0,11.281c3.117,3.111,8.167,3.111,11.28,0c0,0,5.361-5.07,8.117-8.021c0-0.002,0.005,0,0.005,0
			c1.871-1.78,4.003-3.988,6.36-6.397c4.174-4.046,8.865-8.185,13.958-11.64H131.397z"/>
		<g>
			<path fill="#01454C" d="M91.323,56.754c-3.114,3.111-8.162,3.111-11.277,0l0,0c-3.119-3.119-3.115-8.163,0-11.28l36.139-35.707
				c3.113-3.115,8.163-3.115,11.28,0l0,0c3.115,3.117,3.115,8.165,0,11.279L91.323,56.754z"/>
			<path fill="#08C3BE" d="M99.559,48.62l16.57-16.372H93.433L80.046,45.474c-0.911,0.912-1.525,1.998-1.907,3.145H99.559z"/>
			<path fill="#12F8E6" d="M116.185,9.767l-6.407,6.327h19.957c0.195-2.262-0.535-4.592-2.27-6.327
				C124.349,6.652,119.298,6.652,116.185,9.767z"/>
			<path fill="#08C3BE" d="M109.888,15.988l-16.456,16.26h22.696l11.336-11.201c1.408-1.409,2.147-3.217,2.28-5.059H109.888z"/>
			<path fill="#01686D" d="M85.117,40.46l-5.071,5.014c-0.911,0.912-1.525,1.998-1.907,3.145h7.111v-8.16H85.117z"/>
			<polygon fill="#12F8E6" points="107.872,40.404 109.807,38.492 109.807,32.247 101.622,32.247 101.622,40.404 			"/>
			<polygon fill="#01454C" points="85.25,40.404 93.435,40.404 93.435,32.247 93.433,32.247 85.25,40.33 			"/>
			<polygon fill="#049898" points="101.651,40.46 93.462,40.46 93.462,48.62 99.559,48.62 101.651,46.55 			"/>
			<path fill="#012628" d="M85.25,59.045v-2.291h-5.204C81.493,58.2,83.356,58.943,85.25,59.045z"/>
			<path fill="#049898" d="M93.435,48.62H85.25v8.154h6.049c0.005-0.006,0.014-0.01,0.024-0.019l2.112-2.09V48.62z"/>
			<polygon fill="#01686D" points="109.805,32.247 116.129,32.247 117.992,30.405 117.992,24.091 109.805,24.091 			"/>
			<polygon fill="#12F8E6" points="93.435,32.247 101.62,32.247 101.62,24.158 93.435,32.243 			"/>
			<path fill="#049898" d="M109.888,15.988h8.104V8.454c-0.643,0.354-1.262,0.771-1.807,1.313L109.888,15.988z"/>
			<polygon fill="#12F8E6" points="109.807,24.144 109.807,16.071 101.637,24.144 			"/>
		</g>
		<path fill="#370344" d="M57.104,7.484c-4.472,0-8.095,3.627-8.095,8.098v0.157c0,4.471,3.623,8.097,8.095,8.097
			c4.47,0,8.095-3.626,8.095-8.097v-0.157C65.2,11.111,61.574,7.484,57.104,7.484z M57.104,24.422c-4.472,0-8.095,3.627-8.095,8.095
			v18.429c0,4.47,3.623,8.094,8.095,8.094c4.228,0,8.095-3.625,8.095-8.094V32.517C65.2,28.049,61.574,24.422,57.104,24.422z"/>
		<path fill="#FF2E2E" d="M62.623,56.754c-3.113,3.111-8.162,3.111-11.276,0l0,0c-3.117-3.119-3.117-8.163,0-11.28L87.485,9.767
			c3.114-3.115,8.167-3.115,11.28,0l0,0c3.118,3.117,3.114,8.165,0,11.279L62.623,56.754z"/>
		<path fill="#85189F" d="M49.027,32.247h8.016v-7.823C52.692,24.458,49.165,27.924,49.027,32.247z"/>
		<path fill="#370344" d="M57.104,24.422c-0.021,0-0.039,0.003-0.061,0.003v7.823h8.142C65.039,27.903,61.483,24.422,57.104,24.422z
			 M57.017,24.428v0.002c0,0,0.015-0.005,0.026-0.005l0,0C57.031,24.425,57.024,24.428,57.017,24.428z"/>
		<path fill="#5C0B70" d="M65.186,32.247h-8.143V48.62H65.2V32.517C65.2,32.426,65.191,32.339,65.186,32.247z"/>
		<path fill="#611075" d="M51.982,26.253c-0.195,0.157-0.387,0.33-0.565,0.507C51.596,26.584,51.787,26.411,51.982,26.253z"/>
		<path fill="#690B7F" d="M49.021,15.988c0.13,4.333,3.662,7.81,8.022,7.842v-7.842H49.021z"/>
		<rect x="49.009" y="40.404" fill="#9721B4" width="8.034" height="8.215"/>
		<path fill="#690B7F" d="M49.009,32.517v7.887h8.034v-8.157h-8.022C49.019,32.339,49.009,32.426,49.009,32.517z"/>
		<path fill="#950909" d="M49.443,48.62h7.601v-8.773l-5.697,5.628C50.433,46.386,49.821,47.473,49.443,48.62z"/>
		<polygon fill="#EE1111" points="57.043,39.846 57.043,40.404 65.228,40.404 65.228,32.249 64.734,32.249 		"/>
		<polygon fill="#560E68" points="64.734,32.249 65.228,32.249 65.228,31.759 		"/>
		<polygon fill="#600707" points="65.228,48.62 70.858,48.62 73.417,46.094 73.417,40.404 65.228,40.404 		"/>
		<rect x="57.043" y="40.404" fill="#CD0D0D" width="8.185" height="8.215"/>
		<polygon fill="#EE1111" points="65.228,48.62 65.228,54.179 65.559,53.856 70.858,48.62 		"/>
		<path fill="#950909" d="M62.528,56.831c0.031-0.028,0.065-0.047,0.094-0.077l2.605-2.575V48.62h-8.185v8.212H62.528z"/>
		<path fill="#CD0D0D" d="M57.043,56.831v2.251c2.022-0.016,4.037-0.787,5.579-2.328c-0.03,0.03-0.063,0.05-0.094,0.077H57.043z"/>
		<path fill="#600707" d="M49.009,51.111v0.007c0,2.036,0.781,4.077,2.337,5.636c0.029,0.03,0.065,0.05,0.093,0.077h5.604V48.62
			h-7.601C49.177,49.428,49.009,50.268,49.009,51.111z"/>
		<rect x="65.228" y="32.249" fill="#FF3000" width="8.188" height="8.155"/>
		<polygon fill="#FFC100" points="65.228,31.759 65.228,32.249 73.417,32.249 73.417,23.671 		"/>
		<path fill="#FFC100" d="M81.184,15.988l-7.767,7.683v8.578h14.005l11.337-11.202c1.412-1.409,2.147-3.217,2.282-5.059H81.184z"/>
		<path fill="#FBF410" d="M98.765,9.767c-3.113-3.115-8.166-3.115-11.28,0l-6.293,6.221h19.847
			C101.204,13.756,100.472,11.475,98.765,9.767z"/>
		<rect x="73.417" y="24.091" fill="#FFE500" width="8.187" height="8.157"/>
		<path fill="#0BDC0B" d="M141.553,23.002h-3.715v3.714h3.715V23.002z M145.502,28.621h6.339v-6.339h-6.339V28.621z M147.518,19.692
			h5.736v-3.704h-5.736V19.692z M145.279,15.988h-3.743v3.033h3.743V15.988z M144.087,20.433h-3.968v-3.26
			c-6.809,4.434-12.663,9.863-18.187,15.184h23.882c1.088-0.806,2.193-1.585,3.324-2.322h-5.05V20.433z M142.968,28.132h-6.546
			v-6.545h6.546V28.132z M155.625,16.065v4.71h4.707v-4.71H155.625z"/>
		<path fill="#025404" d="M122.044,32.247c-1.684,1.622-13.599,13.226-13.599,13.226c-0.912,0.913-1.524,1.999-1.899,3.146h21.42
			c1.844-1.763,3.936-3.924,6.241-6.284c3.568-3.456,7.51-6.98,11.758-10.089H122.044z"/>
		<path fill="#14EC14" d="M161.248,15.982h3.746v-3.746h-3.746V15.982z M158.537,7.981h-4.459v4.461h4.459V7.981z M164.977,7.794
			h-3.441v3.442h3.441V7.794z M169.808,3.261h-3.445V6.7h3.445V3.261z M147.518,16.097h5.736v-2.137h-5.736V16.097z M155.625,16.097
			h4.707v-0.032h-4.707V16.097z M141.536,16.097h3.743v-0.824h-3.743V16.097z M186.956,3.541h2.548V1h-2.548V3.541z M182.685,4.773
			h2.906V1.868h-2.906V4.773z M191.599,1.049v2.108h2.107V1.049H191.599z M179.137,7.544h2.905V4.638h-2.905V7.544z M173.613,8.18
			h3.106V5.075h-3.106V8.18z M168.617,11.1h3.277V7.821h-3.277V11.1z M179.84,1.204h-2.907v2.906h2.907V1.204z"/>
		<path fill="#023005" d="M121.613,48.62h6.353c0.587-0.56,1.202-1.168,1.834-1.801v-6.414h-8.187V48.62z"/>
		<path fill="#06B906" d="M108.445,45.474c-0.912,0.913-1.524,1.999-1.899,3.146h6.91v-8.026
			C110.741,43.239,108.445,45.474,108.445,45.474z"/>
		<path fill="#047C04" d="M113.455,59.029v-2.275h-5.011C109.843,58.15,111.634,58.884,113.455,59.029z"/>
		<path fill="#0BDC0B" d="M121.641,40.404v-7.765c-1.386,1.337-4.919,4.778-7.992,7.765H121.641z"/>
		<path fill="#06B906" d="M136.249,40.404c0.578-0.544,1.166-1.079,1.765-1.615v-6.541h-8.187v8.157H136.249z"/>
		<path fill="#047C04" d="M113.455,56.773h6.243c0.011-0.006,0.019-0.014,0.026-0.019c0,0,0.788-0.748,1.917-1.833V48.62h-8.186
			V56.773z"/>
		<path fill="#079A07" d="M129.8,32.249v-7.164c-2.687,2.341-5.258,4.759-7.751,7.164H129.8z"/>
		<polygon fill="#FFE500" points="89.785,24.091 89.785,29.913 95.679,24.091 		"/>
		<rect x="81.629" y="15.988" fill="#FFA200" width="8.182" height="8.156"/>
		<path fill="#FBF410" d="M98.759,21.046c1.412-1.409,2.147-3.217,2.282-5.059h-3.068v5.836L98.759,21.046z"/>
		<polygon fill="#FBF410" points="81.604,32.249 73.417,32.249 73.417,40.404 79.173,40.404 81.604,38.005 		"/>
		<polygon fill="#FF7900" points="81.604,38.005 87.43,32.247 81.604,32.249 		"/>
		<path fill="#FFE500" d="M95.503,7.831h-4.755C90.422,7.932,90.1,8.05,89.785,8.195v7.793h8.189V9.116
			C97.214,8.534,96.383,8.104,95.503,7.831z"/>
		<path fill="#690B7F" d="M57.104,7.484c-0.021,0-0.045,0.005-0.066,0.005l0,0h0.005v8.499h8.148
			c0.003-0.083,0.009-0.164,0.009-0.249v-0.157C65.2,11.111,61.574,7.484,57.104,7.484z"/>
		<path fill="#85189F" d="M57.017,15.988h8.141c0.005-0.083,0.014-0.164,0.014-0.249v-0.157c0-3.659-2.427-6.749-5.758-7.752h-2.397
			V15.988z"/>
		<polygon fill="#FFC100" points="73.417,40.404 73.417,46.094 79.173,40.404 		"/>
		<path fill="#9721B4" d="M57.043,15.988v7.842c-0.012,0-0.019,0-0.019,0h-0.007c0.028,0,0.058,0.006,0.088,0.006
			c4.389,0,7.953-3.493,8.087-7.849H57.043z"/>
		<path fill="#82159D" d="M54.785,7.831h2.258V7.489C56.26,7.494,55.504,7.617,54.785,7.831z"/>
		<path fill="#560E68" d="M54.767,7.831c-3.329,1.003-5.758,4.092-5.758,7.752v0.157c0,0.084,0.008,0.166,0.012,0.249h7.995V7.831
			H54.767z"/>
	</g>
	<g>
		<g>
			<path fill="#FFFFFF" d="M181.949,39.593c0.636,0.595,1.541,0.89,2.704,0.89h1.35c1.313,0,2.264-0.274,2.856-0.821
				c0.594-0.547,0.889-1.426,0.889-2.635v-5.404c0-1.209-0.294-2.09-0.889-2.637c-0.592-0.547-1.543-0.82-2.856-0.82h-1.35
				c-1.315,0-2.266,0.273-2.857,0.82c-0.595,0.547-0.893,1.428-0.893,2.637v5.404c0.035,0.308,0.067,0.608,0.104,0.906
				C181.167,38.609,181.483,39.16,181.949,39.593z M182.685,31.525c0-0.597,0.1-1.008,0.307-1.238
				c0.205-0.227,0.582-0.341,1.131-0.341h0.254h1.92h0.254c0.541,0,0.903,0.115,1.107,0.351c0.196,0.235,0.295,0.644,0.295,1.228
				v5.632c0,0.577-0.101,0.975-0.307,1.203c-0.204,0.229-0.577,0.346-1.113,0.346h-0.237h-1.92h-0.254
				c-0.541,0-0.911-0.117-1.124-0.354c-0.211-0.235-0.314-0.644-0.314-1.227V31.525z M206.74,28.166v9.247
				c0,1.841,0.913,2.867,2.739,3.071h0.51h4.637v-1.778h-4.668c-0.515,0-0.884-0.11-1.106-0.316
				c-0.221-0.213-0.332-0.554-0.332-1.022v-9.202H206.74z M168.19,29.946l2.755,9.188c0.162,0.57,0.362,0.961,0.611,1.179
				c0.241,0.217,0.588,0.324,1.035,0.324c0.43,0,0.77-0.112,1.015-0.332c0.247-0.224,0.447-0.614,0.609-1.172l2.753-9.188v10.538
				h1.781V29.946c0-0.513-0.067-0.899-0.208-1.165c-0.132-0.264-0.343-0.464-0.632-0.602c-0.378-0.169-0.72-0.254-1.024-0.254
				c-0.804,0-1.35,0.514-1.646,1.54l-2.694,9.044l-2.622-9.044c-0.306-1.026-0.851-1.54-1.626-1.54
				c-0.322,0-0.668,0.086-1.048,0.254c-0.557,0.251-0.837,0.836-0.837,1.767v10.538h1.777V29.946z M204.585,40.484V28.166h-1.781
				v12.318H204.585z M200.186,39.593c0.387-0.5,0.582-1.267,0.582-2.292v-1.146c0-0.174-0.014-0.301-0.033-0.396
				c-0.139-0.739-0.481-1.235-1.027-1.487c0.274-0.171,0.499-0.393,0.676-0.666c0.179-0.278,0.292-0.603,0.351-0.976
				c0.019-0.093,0.033-0.215,0.033-0.381v-1.485c0-0.284-0.058-0.575-0.172-0.871c-0.455-1.156-1.271-1.729-2.446-1.729h-6.244
				v12.318h6.04C198.984,40.484,199.731,40.188,200.186,39.593z M193.651,29.946h4.081h0.223c0.688,0.138,1.035,0.509,1.035,1.122
				v1.191c0,0.437-0.177,0.78-0.532,1.017c-0.197,0.13-0.427,0.195-0.69,0.195h-4.116V29.946z M193.651,38.706v-3.458h4.098
				c0.161,0,0.349,0.046,0.568,0.137c0.452,0.225,0.672,0.512,0.672,0.855v1.162c0,0.208-0.063,0.419-0.19,0.636
				c-0.24,0.443-0.603,0.667-1.084,0.667H193.651z M216.662,28.917c-0.57,0.501-0.856,1.279-0.856,2.328v5.934
				c0,1.085,0.281,1.907,0.842,2.466c0.557,0.563,1.367,0.838,2.427,0.838h4.773v-1.778h-4.292c-0.64,0-1.074-0.045-1.301-0.14
				c-0.229-0.088-0.422-0.296-0.584-0.617c-0.056-0.138-0.083-0.259-0.083-0.362v-0.774v-1.649h6.296v-1.783h-6.296v-2.085v-0.323
				c0.08-0.391,0.23-0.662,0.454-0.808c0.224-0.149,0.433-0.22,0.629-0.22h0.74h4.491v-1.78h-4.501
				C218.149,28.166,217.233,28.415,216.662,28.917z"/>
			<path fill="#FFFFFF" d="M180.185,14.148h2.651v10.543h1.794V14.148h2.675v-1.781h-7.12V14.148z M177.206,22.527l-3.708-9.028
				c-0.149-0.364-0.31-0.638-0.482-0.814c-0.169-0.177-0.362-0.29-0.571-0.34c-0.213-0.053-0.335-0.077-0.369-0.077
				c-0.091,0-0.177,0-0.258,0c-0.979,0-1.47,0.607-1.47,1.827v10.595h1.781v-9.978l3.729,8.889c0.351,0.834,0.856,1.251,1.513,1.251
				c0.024,0,0.065,0,0.121,0c0.032,0,0.073-0.004,0.118-0.015c0.41-0.047,0.744-0.221,1.006-0.521
				c0.258-0.304,0.391-0.673,0.391-1.103V12.367h-1.8V22.527z M166.413,24.691h1.777V12.367h-1.777V24.691z M189.341,13.122
				c-0.573,0.502-0.857,1.278-0.857,2.326v5.937c0,1.085,0.28,1.906,0.84,2.464c0.558,0.56,1.368,0.842,2.431,0.842h4.774v-1.779
				h-4.297c-0.642,0-1.071-0.045-1.301-0.142c-0.225-0.089-0.42-0.295-0.581-0.615c-0.06-0.141-0.086-0.26-0.086-0.363v-0.774
				v-1.649h6.296v-1.78h-6.296v-2.086v-0.325c0.081-0.387,0.233-0.658,0.456-0.804c0.221-0.149,0.431-0.225,0.628-0.225h0.739h4.488
				v-1.781h-4.496C190.824,12.367,189.912,12.621,189.341,13.122z M220.807,13.122c-0.571,0.502-0.858,1.278-0.858,2.326v5.937
				c0,1.085,0.278,1.906,0.838,2.464c0.557,0.56,1.37,0.842,2.429,0.842h4.777v-1.779h-4.297c-0.637,0-1.073-0.045-1.298-0.142
				c-0.23-0.089-0.425-0.295-0.581-0.615c-0.061-0.141-0.087-0.26-0.087-0.363v-0.774v-1.649h6.297v-1.78h-6.297v-2.086v-0.325
				c0.078-0.387,0.23-0.658,0.454-0.804c0.224-0.149,0.435-0.225,0.627-0.225h0.742h4.488v-1.781h-4.5
				C222.287,12.367,221.377,12.621,220.807,13.122z M204.977,19.452c0.8,0,1.448-0.375,1.947-1.13
				c0.268-0.396,0.399-0.82,0.399-1.266v-2.122c0-0.489-0.074-0.883-0.22-1.179c-0.153-0.299-0.437-0.602-0.857-0.915
				c-0.423-0.313-0.929-0.473-1.525-0.473h-6.23v12.324h1.783V14.148h4.171h0.189c0.513,0.082,0.814,0.388,0.891,0.917v0.223v1.381
				c0,0.555-0.324,0.891-0.975,1.004h-0.171h-2.686h-0.308c-0.538,0.105-0.86,0.391-0.976,0.855
				c-0.036,0.142-0.051,0.268-0.051,0.383c0,0.258,0.051,0.433,0.153,0.541l4.537,5.234l2.368-0.005l-4.547-5.226L204.977,19.452z
				 M228.983,12.367v1.781h2.652v10.543h1.798V14.148h2.668v-1.781H228.983z M215.994,22.527l-3.708-9.028
				c-0.149-0.364-0.31-0.638-0.482-0.814c-0.17-0.177-0.362-0.29-0.572-0.34c-0.212-0.053-0.334-0.077-0.37-0.077
				c-0.09,0-0.174,0-0.255,0c-0.979,0-1.468,0.607-1.468,1.827v10.595h1.775v-9.978l3.73,8.889c0.352,0.834,0.857,1.251,1.516,1.251
				c0.024,0,0.061,0,0.119,0c0.033,0,0.074-0.004,0.123-0.015c0.403-0.047,0.741-0.221,1.003-0.521
				c0.256-0.304,0.39-0.673,0.39-1.103V12.367h-1.8V22.527z"/>
			<path fill="#FFFFFF" d="M257.191,36.786c0,0,1.239-1.781,1.239-4.411l0.094-5.098l-2.42-0.093l-0.003,4.25
				c0,1.283-0.246,2.975-0.7,3.468l-1.188-1.16l-7.483-7.475l1.139-0.67l3.726-2.206c0.202-0.108,0.42-0.284,0.668-0.538
				c1.097-0.993,1.653-2.001,1.653-2.994v-3.008c0-0.646-0.273-1.395-0.809-2.223c-1.021-1.591-2.587-2.361-4.79-2.361h-3.515
				c-1.31,0-2.345,0.15-3.077,0.45c-0.663,0.285-1.272,0.761-1.801,1.415c-0.47,0.63-0.779,1.143-0.945,1.572
				c-0.16,0.391-0.242,0.762-0.242,1.11v2.499l-0.002,0.473c0.09,0.896,0.363,1.655,0.796,2.247l0.356,0.435l1.071,1.205
				l-0.007,0.003l2.007,2.009l-0.631,0.374l-0.598,0.353l-3.074,1.801c-0.252,0.137-0.465,0.285-0.58,0.405
				c-0.162,0.194-0.336,0.453-0.532,0.789c-0.308,0.549-0.522,1.017-0.659,1.437c-0.113,0.33-0.178,0.638-0.178,0.846v3.383
				c0,0.808,0.255,1.644,0.757,2.493c0.514,0.844,1.214,1.528,2.073,2.03c1.19,0.701,2.235,1.04,3.197,1.04h7.777
				c1.424,0,2.718-0.302,3.858-0.899c0.314-0.164,1.466-1.074,1.466-1.074l1.92,1.972h0.405h2.839L257.191,36.786z M241.027,17.872
				c0-0.654,0.265-1.333,0.81-2.071c0.455-0.585,1.144-0.986,2.045-1.184l0.098-0.017h0.001h0.004h0.099h0.419h3.635
				c1.335,0,2.262,0.464,2.752,1.375c0.421,0.741,0.617,1.316,0.617,1.819v1.053c0,0.358-0.062,0.723-0.185,1.152
				c-0.182,0.532-0.501,0.929-0.891,1.12l-3.4,2.142l-2.052,1.262l-0.778-0.778c-0.471-0.497-0.823-0.877-1.043-1.118
				c-1.342-1.459-1.433-1.687-1.499-1.856l-0.5-1.197l-0.133-0.855V17.872z M253.994,36.851c0,0-0.676,0.931-1.89,1.12
				c-0.382,0.06-0.6,0.079-1.447,0.079h-7.922c-1.478,0-2.514-0.459-3.082-1.36c-0.49-0.75-0.739-1.451-0.739-2.086v-1.858
				c0-0.649,0.231-1.305,0.686-1.946l0.214-0.307c0.14-0.198,0.175-0.246,0.202-0.251c0.196-0.201,0.416-0.374,0.62-0.493
				l3.298-1.99l0.2-0.117l0.51-0.272L253.994,36.851z"/>
			<g>
				<g>
					<g>
						<path fill="#FFFFFF" d="M186.606,43.778h-1.324c-1.288,0-2.227,0.27-2.812,0.811c-0.581,0.541-0.869,1.396-0.869,2.587v5.308
							c0.032,0.304,0.068,0.597,0.102,0.893c0.158,0.66,0.464,1.203,0.921,1.626c0.628,0.585,1.509,0.877,2.658,0.877h1.324
							c1.289,0,2.224-0.27,2.807-0.811c0.583-0.539,0.876-1.398,0.876-2.585v-5.308c0-1.19-0.293-2.046-0.876-2.587
							C188.83,44.048,187.895,43.778,186.606,43.778z M188.526,52.613c0,0.562-0.105,0.953-0.303,1.18
							c-0.203,0.224-0.565,0.339-1.097,0.339h-0.234h-1.883h-0.248c-0.532,0-0.898-0.116-1.104-0.344
							c-0.203-0.23-0.313-0.637-0.313-1.209v-5.497c0-0.586,0.105-0.99,0.304-1.213c0.202-0.228,0.569-0.338,1.112-0.338h0.248
							h1.883h0.254c0.525,0,0.886,0.116,1.082,0.344c0.199,0.229,0.297,0.633,0.297,1.208V52.613z M176.466,53.318l-1.652-8.275
							c-0.032-0.192-0.089-0.365-0.165-0.534c-0.069-0.167-0.136-0.299-0.205-0.398c-0.258-0.343-0.604-0.515-1.047-0.515
							c-0.434,0-0.78,0.172-1.04,0.515c-0.171,0.241-0.293,0.555-0.37,0.932l-1.649,8.275l-2.138-9.54h-1.788l2.449,10.955
							c0.13,0.595,0.431,0.988,0.913,1.18c0.149,0.056,0.251,0.09,0.319,0.1c0.068,0.01,0.17,0.016,0.305,0.016
							c0.352,0,0.65-0.116,0.897-0.35c0.248-0.234,0.411-0.548,0.491-0.94l1.61-8.1l1.619,8.1c0.094,0.411,0.257,0.734,0.49,0.955
							c0.24,0.224,0.526,0.335,0.876,0.335c0.229,0,0.441-0.035,0.643-0.116c0.486-0.191,0.788-0.585,0.915-1.18l2.447-10.955H178.6
							L176.466,53.318z M204.927,53.819c-0.214-0.206-0.324-0.541-0.324-1.003v-9.038h-1.744v9.083c0,1.809,0.891,2.813,2.687,3.019
							h0.502h4.552v-1.748h-4.583C205.51,54.131,205.149,54.025,204.927,53.819z M198.771,50.734c0.78,0,1.423-0.368,1.915-1.106
							c0.257-0.392,0.387-0.804,0.387-1.243v-2.087c0-0.478-0.073-0.87-0.217-1.156c-0.147-0.291-0.425-0.593-0.84-0.902
							c-0.413-0.308-0.911-0.462-1.497-0.462h-6.116V55.88h1.747v-10.35h4.099h0.188c0.499,0.077,0.8,0.379,0.875,0.901v0.214v1.36
							c0,0.545-0.32,0.87-0.961,0.983h-0.166h-2.639h-0.302c-0.525,0.103-0.843,0.383-0.958,0.84
							c-0.033,0.142-0.05,0.264-0.05,0.378c0,0.254,0.05,0.427,0.149,0.53l4.453,5.146l2.331-0.007l-4.465-5.132L198.771,50.734z
							 M217.926,43.778h-6.165V55.88h5.851c0.194,0,0.387-0.023,0.583-0.071c0.198-0.046,0.413-0.119,0.635-0.233
							c0.933-0.436,1.474-1.199,1.635-2.286v-0.489v-6.213c0-0.841-0.241-1.521-0.724-2.034
							C219.26,44.04,218.658,43.778,217.926,43.778z M218.717,46.904v5.766c0,0.972-0.406,1.461-1.21,1.461h-4v-8.602h3.963
							c0.436,0,0.741,0.08,0.914,0.244c0.183,0.161,0.29,0.453,0.333,0.877V46.904z"/>
					</g>
					<g>
						<path fill="#FFFFFF" d="M227.723,55.863v-3.757c0-0.843,0.255-1.547,0.765-2.114c0.51-0.567,1.14-0.85,1.891-0.85h2.52
							c0.224,0,0.42-0.089,0.589-0.267c0.167-0.179,0.251-0.385,0.251-0.619v-1.722c0-0.68-0.296-1.021-0.891-1.021h-5.125v-1.764
							h4.99c0.796,0,1.456,0.235,1.984,0.705c0.525,0.472,0.79,1.065,0.79,1.782v2.05c0,0.728-0.255,1.347-0.765,1.857
							c-0.51,0.509-1.124,0.764-1.84,0.764h-2.319c-0.146,0-0.302,0.033-0.47,0.101c-0.169,0.067-0.297,0.145-0.387,0.235
							c-0.135,0.157-0.201,0.398-0.201,0.722v2.134h5.982v1.764H227.723z"/>
						<path fill="#FFFFFF" d="M241.132,55.863c-0.851,0-1.447-0.056-1.789-0.168c-0.342-0.112-0.698-0.358-1.067-0.74
							c-0.303-0.313-0.516-0.657-0.638-1.033c-0.124-0.375-0.184-0.86-0.184-1.453v-5.327c0-0.583,0.06-1.061,0.184-1.437
							c0.123-0.375,0.335-0.72,0.638-1.034c0.37-0.392,0.725-0.643,1.067-0.756c0.342-0.112,0.938-0.167,1.789-0.167h1.311
							c0.851,0,1.451,0.056,1.798,0.167c0.347,0.113,0.706,0.364,1.075,0.756c0.302,0.314,0.515,0.656,0.639,1.026
							c0.124,0.37,0.185,0.852,0.185,1.445v5.327c0,0.616-0.056,1.101-0.167,1.453c-0.113,0.353-0.331,0.698-0.656,1.033
							c-0.369,0.382-0.725,0.628-1.067,0.74c-0.342,0.112-0.944,0.168-1.806,0.168H241.132z M239.2,52.552
							c0,0.605,0.112,1.014,0.337,1.227c0.223,0.213,0.667,0.319,1.328,0.319h1.898c0.628,0,1.056-0.109,1.287-0.328
							c0.229-0.218,0.343-0.624,0.343-1.219v-5.495c0-0.605-0.112-1.014-0.335-1.226c-0.225-0.212-0.656-0.32-1.295-0.32h-1.898
							c-0.64,0-1.076,0.108-1.311,0.32c-0.235,0.212-0.353,0.621-0.353,1.226V52.552z"/>
						<path fill="#FFFFFF" d="M248.106,55.863V43.747h1.747v12.116H248.106z"/>
						<path fill="#FFFFFF" d="M259.916,48.822c-0.276-0.269-0.602-0.46-0.974-0.586c-0.325-0.11-0.683-0.17-1.082-0.17h-2.987
							h-0.232h-0.891v-0.121v-0.888c0-0.605,0.118-1.014,0.353-1.226c0.123-0.111,0.305-0.192,0.538-0.245
							c0.213-0.049,0.468-0.075,0.773-0.075h1.898c0.639,0,1.069,0.108,1.295,0.32c0.223,0.213,0.335,0.621,0.335,1.226v0.01h1.744
							c-0.006-0.557-0.063-1.018-0.181-1.371c-0.021-0.064-0.061-0.123-0.088-0.185c-0.128-0.297-0.301-0.581-0.551-0.84
							c-0.369-0.392-0.728-0.643-1.075-0.756c-0.347-0.112-0.947-0.168-1.798-0.168h-1.311c-0.851,0-1.447,0.056-1.789,0.168
							c-0.321,0.106-0.655,0.345-1,0.696c-0.023,0.023-0.044,0.035-0.067,0.06c-0.303,0.314-0.516,0.659-0.639,1.034
							c-0.124,0.376-0.184,0.854-0.184,1.437v5.327c0,0.594,0.06,1.078,0.184,1.453c0.123,0.376,0.335,0.72,0.639,1.033
							c0.023,0.024,0.044,0.036,0.067,0.058c0.345,0.342,0.679,0.577,1,0.682c0.342,0.112,0.938,0.168,1.789,0.168h1.311h0.83
							c0.86,0,1.554-0.257,2.078-0.774c0.526-0.515,0.788-1.187,0.788-2.016v-0.605v-1.664
							C260.691,49.987,260.433,49.326,259.916,48.822z M255.415,54.098c-0.661,0-1.105-0.106-1.328-0.319
							c-0.224-0.213-0.336-0.621-0.336-1.227V49.83h4.051c0.758,0,1.138,0.366,1.141,1.096v1.626c0,0.594-0.114,1-0.343,1.218
							c-0.23,0.218-0.659,0.328-1.287,0.328H255.415z"/>
					</g>
				</g>
			</g>
		</g>
	</g>
</g>
<g>
	<path fill="#ED145B" d="M8.941,120.986H8.904H7.906v1.456H6.59v-5.175h2.314c1.367,0,2.151,0.651,2.151,1.804
		c0,0.791-0.332,1.361-0.939,1.664l1.087,1.707H9.709L8.941,120.986z M8.904,119.951c0.569,0,0.902-0.288,0.902-0.836
		c0-0.539-0.332-0.813-0.902-0.813H7.906v1.649H8.904z"/>
	<path fill="#ED145B" d="M17.418,119.847c0,1.508-1.197,2.655-2.802,2.655c-1.597,0-2.794-1.139-2.794-2.655
		c0-1.508,1.197-2.624,2.794-2.624C16.22,117.223,17.418,118.347,17.418,119.847z M13.167,119.855c0,0.873,0.672,1.545,1.464,1.545
		c0.798,0,1.434-0.672,1.434-1.545c0-0.873-0.636-1.53-1.434-1.53C13.832,118.325,13.167,118.982,13.167,119.855z"/>
	<path fill="#ED145B" d="M22.854,122.442l-0.008-3.364l-1.242,2.846h-0.858l-1.242-2.846v3.364H18.33v-5.183h1.441l1.405,3.083
		l1.404-3.083h1.435v5.183H22.854z"/>
	<path fill="#ED145B" d="M26.589,118.302v1.028h2.47v1.035h-2.47v1.043h2.817v1.035h-4.133v-5.175h4.051v1.035H26.589z"/>
	<path fill="#ED145B" d="M35.333,122.442h-1.574l-1.116-1.649l-1.116,1.649h-1.531l1.848-2.646l-1.73-2.529h1.531l0.998,1.508
		l0.997-1.508h1.545l-1.707,2.47L35.333,122.442z"/>
	<path fill="#ED145B" d="M38.375,117.267c1.323,0,2.084,0.651,2.084,1.804c0,1.213-0.761,1.915-2.084,1.915h-0.94v1.456h-1.316
		v-5.175H38.375z M37.435,119.951h0.873c0.577,0,0.909-0.288,0.909-0.836c0-0.539-0.332-0.813-0.909-0.813h-0.873V119.951z"/>
	<path fill="#ED145B" d="M46.622,119.847c0,1.508-1.197,2.655-2.802,2.655c-1.597,0-2.794-1.139-2.794-2.655
		c0-1.508,1.197-2.624,2.794-2.624C45.424,117.223,46.622,118.347,46.622,119.847z M42.371,119.855c0,0.873,0.672,1.545,1.464,1.545
		c0.798,0,1.434-0.672,1.434-1.545c0-0.873-0.636-1.53-1.434-1.53C43.036,118.325,42.371,118.982,42.371,119.855z"/>
	<path fill="#ED145B" d="M53.852,117.267c1.161,0,1.9,0.503,1.9,1.294c0,0.548-0.34,0.983-0.887,1.139
		c0.65,0.126,1.064,0.636,1.064,1.308c0,0.88-0.769,1.435-1.989,1.435h-2.536v-5.175H53.852z M52.714,119.337h1.064
		c0.384,0,0.628-0.207,0.628-0.539c0-0.333-0.244-0.525-0.628-0.525h-1.064V119.337z M52.714,121.43h1.064
		c0.487,0,0.79-0.214,0.79-0.585c0-0.348-0.303-0.562-0.79-0.562h-1.064V121.43z"/>
	<path fill="#ED145B" d="M61.567,120.269c0,1.367-0.909,2.233-2.358,2.233c-1.457,0-2.388-0.865-2.388-2.233v-3.002h1.316v3.002
		c0,0.702,0.451,1.13,1.079,1.13c0.621,0,1.043-0.429,1.043-1.13v-3.002h1.309V120.269z"/>
	<path fill="#ED145B" d="M67.241,118.095l-0.761,0.902c-0.34-0.414-0.843-0.672-1.301-0.672c-0.821,0-1.441,0.651-1.441,1.501
		c0,0.865,0.62,1.522,1.441,1.522c0.436,0,0.939-0.236,1.301-0.605l0.769,0.813c-0.554,0.569-1.375,0.946-2.136,0.946
		c-1.56,0-2.721-1.146-2.721-2.662c0-1.493,1.19-2.617,2.765-2.617C65.925,117.223,66.723,117.563,67.241,118.095z"/>
	<path fill="#ED145B" d="M71.526,122.442v-2.011h-2.145v2.011h-1.316v-5.175h1.316v2.13h2.145v-2.13h1.316v5.175H71.526z"/>
	<path fill="#ED145B" d="M75.269,121.489l-0.378,0.954h-1.352l2.233-5.175h1.352l2.182,5.175H77.9l-0.369-0.954H75.269z
		 M76.407,118.576l-0.754,1.914h1.493L76.407,118.576z"/>
	<path fill="#ED145B" d="M82.355,120.986h-0.037H81.32v1.456h-1.316v-5.175h2.314c1.367,0,2.151,0.651,2.151,1.804
		c0,0.791-0.332,1.361-0.939,1.664l1.087,1.707h-1.494L82.355,120.986z M82.318,119.951c0.569,0,0.902-0.288,0.902-0.836
		c0-0.539-0.332-0.813-0.902-0.813H81.32v1.649H82.318z"/>
	<path fill="#ED145B" d="M86.89,118.302v1.028h2.47v1.035h-2.47v1.043h2.817v1.035h-4.133v-5.175h4.051v1.035H86.89z"/>
	<path fill="#ED145B" d="M94.805,117.785l-0.495,1.028c-0.547-0.317-1.234-0.539-1.656-0.539c-0.34,0-0.569,0.126-0.569,0.377
		c0,0.894,2.735,0.384,2.735,2.255c0,1.035-0.917,1.582-2.07,1.582c-0.865,0-1.752-0.325-2.366-0.828l0.51-1.012
		c0.533,0.466,1.331,0.776,1.871,0.776c0.414,0,0.672-0.156,0.672-0.451c0-0.916-2.735-0.369-2.735-2.203
		c0-0.953,0.821-1.559,2.063-1.559C93.511,117.209,94.273,117.437,94.805,117.785z"/>
	<path fill="#ED145B" d="M98.15,118.325v4.118h-1.316v-4.118h-1.545v-1.065h4.421v1.065H98.15z"/>
</g>
<g>
	<path fill="#FFFFFF" d="M11.709,111.058c-0.446,0-0.809-0.363-0.809-0.809v-3.645c-0.985,0.039-1.576,0.065-1.576,0.065
		c-0.409,0-0.731-0.251-0.82-0.609l-2.534-9.826c-0.083-0.317,0.034-0.651,0.297-0.849c2.167-1.629,7.883-2.885,16.991-3.738
		c0.962-0.089,1.959-0.174,2.99-0.254c2.737-4.541,13.699-7.701,26.798-7.701c13.182,0,24.159,3.184,26.838,7.761
		c1.308,0.097,2.565,0.2,3.767,0.311c14.961,1.377,15.972,3.19,16.352,3.873c0.108,0.189,0.132,0.42,0.068,0.632
		c-0.246,0.812-0.52,1.671-0.808,2.58l-0.059,0.183c-0.752,2.373-1.583,4.99-2.133,7.277c-0.089,0.366-0.412,0.622-0.788,0.622
		l-0.154-0.015c-0.094-0.018-0.188-0.035-0.285-0.054v3.387c0,0.446-0.363,0.809-0.809,0.809H11.709V111.058z M94.224,109.436
		v-2.833c-5.678-0.795-15.818-1.199-30.151-1.199c-7.897,0-17.049,0.125-27.206,0.371l-0.659,0.015
		c-10.325,0.255-19.166,0.574-23.69,0.749v2.897h81.706V109.436z M64.088,103.781c15.475,0,26.1,0.472,31.591,1.405
		c0.554-2.168,1.309-4.538,1.976-6.637c0,0,0.523-1.646,0.731-2.32c-0.686-0.515-3.508-1.803-14.886-2.851
		c-7.775-0.716-17.797-1.152-28.22-1.228l-5.099-0.008l-1.551,0.009c-7.901,0.063-15.353,0.342-21.587,0.805
		c-9.949,0.748-16.798,1.963-19.362,3.433l2.223,8.631l1.759-0.069c4.535-0.18,13.755-0.517,24.696-0.785l0.885-0.021
		C47.248,103.904,56.279,103.781,64.088,103.781z M57.619,90.551l4.167,0.072c5.598,0.123,10.893,0.346,15.738,0.663l0.266,0.326
		l0.015-0.242c-3.322-3.539-13.505-6.059-24.761-6.059c-11.07,0-21.157,2.459-24.619,5.921c5.753-0.389,12.477-0.631,19.503-0.697
		l4.141-0.022L57.619,90.551z"/>
	<g>
		<path fill="#FFFFFF" d="M22.852,86.789c-0.873-2.357-2.793-4.015-5.237-4.451c-0.873-0.175-1.746-0.175-2.619,0
			c-2.444,0.436-4.364,2.095-5.237,4.451c-0.873,2.357-0.436,4.975,1.222,6.982l5.324,5.935l5.324-6.022
			C23.289,91.764,23.725,89.145,22.852,86.789z M16.306,90.994c-1.158,0-2.064-0.906-2.064-2.014c0-1.108,0.906-2.014,2.064-2.014
			s2.064,0.906,2.064,2.014C18.37,90.088,17.464,90.994,16.306,90.994z"/>
	</g>
</g>
<g>
	<path fill="#ED145B" d="M136.836,92.559l0.967-9.399h9.836v2.995h-6.668l-0.426,3.512c0.292-0.222,0.656-0.402,1.094-0.541
		c0.438-0.138,0.918-0.214,1.44-0.23c1.643-0.03,2.906,0.448,3.789,1.435c0.883,0.987,1.325,2.386,1.325,4.198
		c0,1.574-0.503,2.909-1.509,4.002c-1.006,1.095-2.445,1.641-4.319,1.641c-1.597,0-2.983-0.441-4.158-1.324
		c-1.175-0.883-1.743-2.05-1.705-3.502l0.023-0.069l3.801-0.23c0,0.668,0.186,1.19,0.559,1.567c0.372,0.376,0.865,0.564,1.48,0.564
		c0.706,0,1.207-0.247,1.503-0.742c0.296-0.496,0.444-1.124,0.444-1.883c0-0.922-0.165-1.648-0.496-2.178
		c-0.33-0.53-0.852-0.794-1.566-0.794c-0.522,0-0.943,0.111-1.262,0.334c-0.318,0.223-0.539,0.502-0.662,0.841L136.836,92.559z"/>
	<path fill="#ED145B" d="M157.833,94.194h-6.922v-2.995h6.922V94.194z"/>
	<path fill="#ED145B" d="M167.692,82.919c0.66,0,1.248,0.056,1.762,0.166c0.514,0.111,1.082,0.29,1.705,0.536l-0.645,2.833
		c-0.537-0.161-1.008-0.282-1.411-0.363c-0.403-0.081-0.866-0.121-1.388-0.121c-0.921,0-1.66,0.324-2.217,0.973
		c-0.556,0.649-0.824,1.595-0.8,2.839l0.034,0.058c0.338-0.383,0.788-0.683,1.348-0.898c0.561-0.214,1.198-0.322,1.912-0.322
		c1.497,0,2.662,0.539,3.495,1.618c0.833,1.079,1.25,2.459,1.25,4.141c0,1.658-0.552,3.038-1.654,4.14
		c-1.101,1.102-2.508,1.653-4.22,1.653c-1.836,0-3.318-0.603-4.446-1.809c-1.129-1.205-1.693-2.856-1.693-4.952v-3.374
		c0-2.212,0.651-3.95,1.952-5.218C163.978,83.551,165.649,82.919,167.692,82.919z M166.921,91.615c-0.538,0-1,0.073-1.388,0.217
		c-0.388,0.145-0.693,0.348-0.916,0.608v0.987c0,1.208,0.198,2.135,0.594,2.781c0.395,0.646,0.946,0.969,1.653,0.969
		c0.583,0,1.06-0.275,1.428-0.825c0.368-0.551,0.552-1.205,0.552-1.962c0-0.849-0.178-1.524-0.535-2.025
		C167.951,91.865,167.488,91.615,166.921,91.615z"/>
	<path fill="#ED145B" d="M194.482,93.054c0,2.065-0.654,3.768-1.963,5.108c-1.31,1.34-3.02,2.01-5.131,2.01
		c-2.128,0-3.851-0.67-5.172-2.01c-1.321-1.34-1.981-3.043-1.981-5.108v-3.017c0-2.058,0.658-3.759,1.975-5.103
		c1.317-1.344,3.035-2.015,5.154-2.015c2.104,0,3.816,0.671,5.137,2.015c1.32,1.344,1.98,3.045,1.98,5.103V93.054z M190.6,90.013
		c0-1.197-0.282-2.181-0.846-2.948c-0.565-0.768-1.361-1.151-2.39-1.151c-1.052,0-1.856,0.382-2.413,1.146
		c-0.557,0.764-0.835,1.749-0.835,2.954v3.041c0,1.214,0.282,2.204,0.846,2.972c0.565,0.768,1.373,1.151,2.425,1.151
		c1.021,0,1.811-0.383,2.372-1.151c0.56-0.768,0.84-1.758,0.84-2.972V90.013z"/>
	<path fill="#ED145B" d="M209.8,94.045l0.024,0.069c-0.076,1.966-0.658,3.467-1.745,4.504c-1.086,1.036-2.662,1.554-4.728,1.554
		c-2.073,0-3.759-0.637-5.056-1.911c-1.298-1.275-1.946-2.93-1.946-4.965v-3.501c0-2.028,0.623-3.68,1.872-4.959
		c1.248-1.278,2.869-1.917,4.866-1.917c2.119,0,3.74,0.534,4.861,1.601c1.121,1.067,1.755,2.584,1.9,4.549l-0.023,0.069h-3.79
		c-0.054-1.09-0.297-1.9-0.731-2.43c-0.433-0.53-1.173-0.794-2.217-0.794c-0.883,0-1.578,0.355-2.084,1.065
		c-0.507,0.71-0.76,1.641-0.76,2.793v3.524c0,1.16,0.277,2.097,0.829,2.811c0.552,0.714,1.313,1.071,2.281,1.071
		c0.937,0,1.601-0.249,1.993-0.749c0.391-0.499,0.614-1.294,0.668-2.384H209.8z"/>
	<path fill="#ED145B" d="M223.264,86.155h-4.423V99.93h-3.904V86.155h-4.389V83.16h12.715V86.155z"/>
	<path fill="#ED145B" d="M238.388,93.054c0,2.065-0.654,3.768-1.963,5.108c-1.31,1.34-3.02,2.01-5.131,2.01
		c-2.128,0-3.851-0.67-5.171-2.01c-1.321-1.34-1.981-3.043-1.981-5.108v-3.017c0-2.058,0.658-3.759,1.975-5.103
		c1.317-1.344,3.035-2.015,5.154-2.015c2.104,0,3.816,0.671,5.137,2.015c1.32,1.344,1.98,3.045,1.98,5.103V93.054z M234.506,90.013
		c0-1.197-0.282-2.181-0.846-2.948c-0.565-0.768-1.361-1.151-2.39-1.151c-1.052,0-1.856,0.382-2.413,1.146
		c-0.557,0.764-0.835,1.749-0.835,2.954v3.041c0,1.214,0.282,2.204,0.846,2.972c0.565,0.768,1.373,1.151,2.425,1.151
		c1.021,0,1.811-0.383,2.372-1.151c0.56-0.768,0.841-1.758,0.841-2.972V90.013z"/>
	<path fill="#ED145B" d="M240.645,99.93V83.16h5.759c2.081,0,3.705,0.385,4.872,1.157c1.167,0.773,1.751,1.922,1.751,3.45
		c0,0.799-0.188,1.509-0.565,2.131c-0.376,0.622-0.956,1.091-1.739,1.405c0.982,0.223,1.708,0.671,2.177,1.342
		c0.468,0.672,0.703,1.446,0.703,2.321c0,1.635-0.55,2.872-1.647,3.709c-1.098,0.837-2.673,1.255-4.723,1.255H240.645z
		 M244.55,90.152h1.935c0.883-0.016,1.543-0.186,1.98-0.513c0.438-0.327,0.657-0.805,0.657-1.434c0-0.715-0.223-1.234-0.669-1.561
		c-0.445-0.326-1.129-0.489-2.05-0.489h-1.854V90.152z M244.55,92.732v4.203h2.683c0.83,0,1.452-0.163,1.866-0.489
		c0.415-0.327,0.622-0.827,0.622-1.503c0-0.729-0.178-1.28-0.535-1.653c-0.357-0.372-0.935-0.558-1.734-0.558H244.55z"/>
	<path fill="#ED145B" d="M266.273,92.754h-6.577v4.181h7.752v2.995h-11.657V83.16h11.679v2.995h-7.774v3.605h6.577V92.754z"/>
	<path fill="#ED145B" d="M273.114,93.503v6.427h-3.905V83.16h6.45c1.943,0,3.482,0.449,4.619,1.348
		c1.136,0.898,1.705,2.127,1.705,3.685c0,0.868-0.229,1.613-0.686,2.234c-0.457,0.622-1.13,1.129-2.021,1.52
		c1.028,0.292,1.768,0.777,2.216,1.457c0.45,0.68,0.674,1.526,0.674,2.539v1.06c0,0.438,0.065,0.937,0.195,1.498
		c0.13,0.56,0.357,0.96,0.68,1.197v0.23h-4.009c-0.307-0.238-0.508-0.66-0.604-1.267c-0.096-0.606-0.144-1.166-0.144-1.681v-1.013
		c0-0.799-0.212-1.409-0.634-1.832c-0.422-0.422-1.041-0.633-1.855-0.633H273.114z M273.114,90.509h2.568
		c0.784,0,1.383-0.178,1.797-0.535c0.415-0.357,0.622-0.87,0.622-1.538c0-0.683-0.213-1.233-0.639-1.653
		c-0.427-0.418-1.027-0.627-1.803-0.627h-2.545V90.509z"/>
</g>
<g>
	<path fill="#FFFFFF" d="M140.759,107.9h-2.111v5.868h-0.889V107.9h-2.107v-0.7h5.106V107.9z"/>
	<path fill="#FFFFFF" d="M146.69,113.767h-0.889v-2.9h-3.188v2.9h-0.889V107.2h0.889v2.968h3.188V107.2h0.889V113.767z"/>
	<path fill="#FFFFFF" d="M152.211,110.723h-3.008v2.346h3.468v0.699h-4.356V107.2h4.307v0.7h-3.419v2.124h3.008V110.723z"/>
	<path fill="#FFFFFF" d="M156.897,113.068h3.107v0.699h-3.996V107.2h0.889V113.068z"/>
	<path fill="#FFFFFF" d="M164.641,112.076h-2.751l-0.623,1.691h-0.906l2.539-6.567h0.762l2.499,6.567h-0.907L164.641,112.076z
		 M162.165,111.332h2.21l-1.082-2.99h-0.027L162.165,111.332z"/>
	<path fill="#FFFFFF" d="M167.952,110.921v2.846h-0.889v-6.563h2.377c0.719,0,1.267,0.16,1.646,0.478
		c0.379,0.319,0.569,0.782,0.569,1.389c0,0.337-0.089,0.63-0.264,0.88c-0.176,0.249-0.433,0.448-0.769,0.595
		c0.361,0.117,0.62,0.308,0.778,0.57c0.158,0.263,0.236,0.588,0.236,0.977v0.618c0,0.205,0.023,0.388,0.068,0.551
		s0.124,0.295,0.234,0.397v0.109h-0.915c-0.117-0.102-0.193-0.252-0.226-0.451c-0.033-0.198-0.049-0.402-0.049-0.613v-0.6
		c0-0.355-0.104-0.64-0.312-0.858c-0.208-0.216-0.485-0.325-0.834-0.325H167.952z M167.952,110.222h1.398
		c0.502,0,0.864-0.095,1.085-0.286c0.221-0.19,0.331-0.481,0.331-0.871c0-0.369-0.108-0.654-0.323-0.858
		c-0.214-0.202-0.55-0.304-1.003-0.304h-1.488V110.222z"/>
	<path fill="#FFFFFF" d="M177.942,112.897c-0.156,0.241-0.428,0.462-0.814,0.663c-0.386,0.202-0.886,0.302-1.5,0.302
		c-0.785,0-1.434-0.251-1.946-0.753c-0.512-0.502-0.769-1.152-0.769-1.948v-1.353c0-0.797,0.239-1.447,0.717-1.948
		c0.479-0.502,1.095-0.754,1.85-0.754c0.752,0,1.342,0.185,1.773,0.554c0.43,0.37,0.649,0.847,0.658,1.43l-0.009,0.027h-0.848
		c-0.026-0.382-0.172-0.696-0.434-0.943c-0.263-0.246-0.643-0.37-1.139-0.37c-0.502,0-0.907,0.188-1.214,0.564
		c-0.307,0.375-0.46,0.852-0.46,1.428v1.362c0,0.583,0.171,1.062,0.514,1.439c0.343,0.377,0.779,0.566,1.308,0.566
		c0.373,0,0.678-0.049,0.916-0.148c0.237-0.099,0.407-0.212,0.509-0.338v-1.489h-1.438v-0.699h2.327V112.897z"/>
	<path fill="#FFFFFF" d="M183.377,110.723h-3.008v2.346h3.468v0.699h-4.356V107.2h4.307v0.7h-3.419v2.124h3.008V110.723z"/>
	<path fill="#FFFFFF" d="M188.456,112.114c0-0.299-0.112-0.55-0.338-0.751c-0.226-0.202-0.626-0.372-1.2-0.509
		c-0.694-0.166-1.236-0.41-1.625-0.733c-0.39-0.322-0.585-0.728-0.585-1.216c0-0.512,0.21-0.94,0.629-1.283
		c0.42-0.344,0.963-0.516,1.631-0.516c0.719,0,1.291,0.197,1.716,0.591c0.426,0.394,0.631,0.851,0.616,1.37l-0.008,0.027h-0.848
		c0-0.384-0.128-0.696-0.382-0.933c-0.254-0.238-0.619-0.357-1.094-0.357c-0.442,0-0.781,0.1-1.017,0.3s-0.354,0.461-0.354,0.782
		c0,0.286,0.127,0.524,0.383,0.715c0.256,0.192,0.671,0.359,1.245,0.503c0.691,0.171,1.218,0.424,1.579,0.757
		c0.361,0.334,0.541,0.748,0.541,1.241c0,0.529-0.216,0.955-0.65,1.276c-0.433,0.322-0.998,0.483-1.696,0.483
		c-0.655,0-1.235-0.178-1.739-0.535c-0.503-0.356-0.748-0.832-0.733-1.427l0.009-0.027h0.848c0,0.421,0.155,0.741,0.464,0.96
		c0.31,0.22,0.693,0.33,1.15,0.33c0.449,0,0.803-0.094,1.064-0.282S188.456,112.437,188.456,112.114z"/>
	<path fill="#FFFFFF" d="M195.086,107.9h-2.111v5.868h-0.889V107.9h-2.107v-0.7h5.106V107.9z"/>
	<path fill="#FFFFFF" d="M198.049,113.767V107.2h2.255c0.815,0,1.452,0.151,1.909,0.453c0.457,0.302,0.686,0.753,0.686,1.351
		c0,0.313-0.074,0.59-0.221,0.834c-0.147,0.244-0.375,0.427-0.682,0.551c0.385,0.087,0.67,0.263,0.853,0.525
		c0.183,0.263,0.275,0.567,0.275,0.909c0,0.64-0.214,1.124-0.645,1.452c-0.43,0.328-1.046,0.492-1.849,0.492H198.049z
		 M199.578,109.938h0.758c0.346-0.006,0.604-0.073,0.775-0.2c0.172-0.128,0.258-0.315,0.258-0.562c0-0.28-0.088-0.484-0.262-0.611
		c-0.175-0.127-0.443-0.192-0.804-0.192h-0.726V109.938z M199.578,110.948v1.646h1.051c0.325,0,0.569-0.063,0.731-0.192
		c0.162-0.127,0.244-0.324,0.244-0.588c0-0.285-0.07-0.501-0.21-0.647c-0.14-0.146-0.366-0.219-0.679-0.219H199.578z"/>
	<path fill="#FFFFFF" d="M208.464,113.767h-4.596v-0.993l2.111-2.218c0.268-0.307,0.465-0.581,0.591-0.822
		c0.127-0.24,0.189-0.45,0.189-0.627c0-0.252-0.063-0.453-0.192-0.603c-0.127-0.151-0.319-0.226-0.574-0.226
		c-0.229,0-0.409,0.096-0.539,0.291c-0.131,0.194-0.196,0.441-0.196,0.741h-1.488l-0.009-0.026
		c-0.015-0.607,0.184-1.123,0.596-1.545s0.958-0.634,1.638-0.634c0.722,0,1.284,0.178,1.689,0.533
		c0.404,0.354,0.606,0.84,0.606,1.456c0,0.416-0.107,0.782-0.322,1.1c-0.215,0.319-0.611,0.792-1.188,1.421l-0.889,0.952
		l0.013,0.026h2.562V113.767z"/>
	<path fill="#FFFFFF" d="M209.329,113.767V107.2h2.255c0.815,0,1.452,0.151,1.909,0.453c0.457,0.302,0.686,0.753,0.686,1.351
		c0,0.313-0.074,0.59-0.221,0.834c-0.147,0.244-0.375,0.427-0.682,0.551c0.385,0.087,0.67,0.263,0.853,0.525
		c0.183,0.263,0.275,0.567,0.275,0.909c0,0.64-0.214,1.124-0.645,1.452c-0.43,0.328-1.046,0.492-1.849,0.492H209.329z
		 M210.858,109.938h0.758c0.346-0.006,0.604-0.073,0.775-0.2c0.172-0.128,0.258-0.315,0.258-0.562c0-0.28-0.088-0.484-0.262-0.611
		c-0.175-0.127-0.443-0.192-0.804-0.192h-0.726V109.938z M210.858,110.948v1.646h1.051c0.325,0,0.569-0.063,0.731-0.192
		c0.162-0.127,0.244-0.324,0.244-0.588c0-0.285-0.07-0.501-0.21-0.647c-0.14-0.146-0.366-0.219-0.679-0.219H210.858z"/>
	<path fill="#FFFFFF" d="M221.665,110.958h-2.576v1.637h3.036v1.173h-4.565V107.2h4.574v1.173h-3.045v1.412h2.576V110.958z"/>
	<path fill="#FFFFFF" d="M225.224,109.415l1.082-2.215h1.759l-1.881,3.256l2.025,3.311h-1.849l-1.118-2.26l-1.119,2.26h-1.758
		l1.93-3.311l-1.881-3.256h1.746L225.224,109.415z"/>
	<path fill="#FFFFFF" d="M230.239,111.517v2.25h-1.529V107.2h2.666c0.779,0,1.397,0.199,1.854,0.598
		c0.457,0.399,0.686,0.92,0.686,1.563c0,0.647-0.229,1.167-0.686,1.563c-0.457,0.395-1.075,0.593-1.854,0.593H230.239z
		 M230.239,110.344h1.137c0.331,0,0.583-0.091,0.756-0.273c0.173-0.181,0.26-0.416,0.26-0.702c0-0.291-0.087-0.53-0.26-0.717
		c-0.173-0.186-0.425-0.28-0.756-0.28h-1.137V110.344z"/>
	<path fill="#FFFFFF" d="M240.203,111.075c0,0.808-0.257,1.475-0.77,2c-0.513,0.525-1.182,0.787-2.009,0.787
		c-0.833,0-1.508-0.262-2.026-0.787c-0.517-0.525-0.775-1.192-0.775-2v-1.182c0-0.806,0.258-1.471,0.773-1.997
		c0.516-0.526,1.188-0.79,2.018-0.79c0.824,0,1.495,0.263,2.012,0.79c0.518,0.526,0.776,1.192,0.776,1.997V111.075z
		 M238.682,109.884c0-0.469-0.11-0.854-0.331-1.155c-0.221-0.3-0.533-0.45-0.936-0.45c-0.412,0-0.727,0.149-0.944,0.449
		c-0.218,0.299-0.328,0.685-0.328,1.157v1.191c0,0.475,0.111,0.863,0.331,1.163c0.221,0.3,0.537,0.451,0.95,0.451
		c0.399,0,0.709-0.151,0.929-0.451c0.219-0.3,0.329-0.688,0.329-1.163V109.884z"/>
	<path fill="#FFFFFF" d="M243.969,111.521h-2.71v-1.173h2.71V111.521z"/>
	<path fill="#FFFFFF" d="M250.355,111.463l0.009,0.026c-0.03,0.77-0.258,1.358-0.684,1.764c-0.425,0.405-1.043,0.608-1.851,0.608
		c-0.812,0-1.472-0.249-1.98-0.749c-0.508-0.499-0.762-1.146-0.762-1.944v-1.371c0-0.793,0.245-1.441,0.733-1.942
		c0.489-0.501,1.124-0.751,1.906-0.751c0.83,0,1.465,0.209,1.903,0.627c0.439,0.417,0.688,1.011,0.744,1.781l-0.008,0.027h-1.484
		c-0.022-0.427-0.117-0.744-0.287-0.952c-0.17-0.207-0.459-0.311-0.868-0.311c-0.346,0-0.618,0.139-0.816,0.416
		c-0.199,0.279-0.298,0.643-0.298,1.095v1.38c0,0.454,0.109,0.821,0.325,1.1c0.216,0.28,0.515,0.42,0.893,0.42
		c0.366,0,0.627-0.098,0.78-0.294c0.153-0.195,0.241-0.506,0.262-0.933H250.355z"/>
	<path fill="#FFFFFF" d="M256.607,111.075c0,0.808-0.257,1.475-0.77,2c-0.513,0.525-1.182,0.787-2.009,0.787
		c-0.833,0-1.508-0.262-2.026-0.787c-0.517-0.525-0.775-1.192-0.775-2v-1.182c0-0.806,0.258-1.471,0.773-1.997
		c0.516-0.526,1.188-0.79,2.018-0.79c0.824,0,1.495,0.263,2.012,0.79c0.518,0.526,0.776,1.192,0.776,1.997V111.075z
		 M255.086,109.884c0-0.469-0.11-0.854-0.331-1.155c-0.221-0.3-0.533-0.45-0.936-0.45c-0.412,0-0.727,0.149-0.944,0.449
		c-0.218,0.299-0.328,0.685-0.328,1.157v1.191c0,0.475,0.111,0.863,0.331,1.163c0.221,0.3,0.537,0.451,0.95,0.451
		c0.399,0,0.709-0.151,0.929-0.451c0.219-0.3,0.329-0.688,0.329-1.163V109.884z"/>
	<path fill="#FFFFFF" d="M262.971,113.767h-1.52l-2.404-4.186l-0.027,0.009v4.176h-1.529V107.2h1.529l2.404,4.186l0.027-0.008V107.2
		h1.52V113.767z"/>
	<path fill="#FFFFFF" d="M268.162,111.124h-2.63v2.643h-1.529V107.2h4.619v1.173h-3.09v1.579h2.63V111.124z"/>
	<path fill="#FFFFFF" d="M273.417,110.958h-2.576v1.637h3.036v1.173h-4.565V107.2h4.574v1.173h-3.045v1.412h2.576V110.958z"/>
	<path fill="#FFFFFF" d="M276.095,111.25v2.517h-1.529V107.2h2.526c0.76,0,1.364,0.177,1.809,0.528
		c0.445,0.352,0.668,0.833,0.668,1.443c0,0.34-0.09,0.632-0.268,0.875c-0.179,0.244-0.443,0.442-0.791,0.595
		c0.402,0.114,0.692,0.305,0.868,0.57c0.176,0.266,0.263,0.598,0.263,0.995v0.415c0,0.171,0.025,0.366,0.077,0.586
		c0.051,0.219,0.14,0.376,0.265,0.468v0.091h-1.57c-0.12-0.093-0.199-0.259-0.236-0.496c-0.038-0.238-0.057-0.457-0.057-0.659
		v-0.397c0-0.313-0.083-0.552-0.248-0.717c-0.165-0.165-0.407-0.248-0.726-0.248H276.095z M276.095,110.077h1.007
		c0.306,0,0.541-0.07,0.704-0.21c0.161-0.14,0.243-0.34,0.243-0.602c0-0.268-0.083-0.484-0.25-0.648
		c-0.166-0.163-0.401-0.246-0.705-0.246h-0.997V110.077z"/>
	<path fill="#FFFFFF" d="M284.77,110.958h-2.576v1.637h3.036v1.173h-4.565V107.2h4.574v1.173h-3.045v1.412h2.576V110.958z"/>
	<path fill="#FFFFFF" d="M291.399,113.767h-1.52l-2.404-4.186l-0.027,0.009v4.176h-1.529V107.2h1.529l2.404,4.186l0.027-0.008V107.2
		h1.52V113.767z"/>
	<path fill="#FFFFFF" d="M297.547,111.463l0.009,0.026c-0.03,0.77-0.258,1.358-0.684,1.764c-0.425,0.405-1.043,0.608-1.851,0.608
		c-0.812,0-1.472-0.249-1.98-0.749c-0.508-0.499-0.762-1.146-0.762-1.944v-1.371c0-0.793,0.245-1.441,0.733-1.942
		c0.489-0.501,1.124-0.751,1.906-0.751c0.83,0,1.465,0.209,1.903,0.627c0.439,0.417,0.688,1.011,0.744,1.781l-0.009,0.027h-1.484
		c-0.022-0.427-0.117-0.744-0.287-0.952c-0.17-0.207-0.459-0.311-0.868-0.311c-0.346,0-0.618,0.139-0.816,0.416
		c-0.199,0.279-0.298,0.643-0.298,1.095v1.38c0,0.454,0.109,0.821,0.325,1.1c0.216,0.28,0.515,0.42,0.893,0.42
		c0.366,0,0.627-0.098,0.78-0.294c0.153-0.195,0.241-0.506,0.262-0.933H297.547z"/>
	<path fill="#FFFFFF" d="M302.473,110.958h-2.576v1.637h3.036v1.173h-4.565V107.2h4.574v1.173h-3.045v1.412h2.576V110.958z"/>
	<path fill="#FFFFFF" d="M140.173,121.955h-2.63v2.643h-1.529v-6.567h4.619v1.173h-3.09v1.579h2.63V121.955z"/>
	<path fill="#FFFFFF" d="M146.753,121.906c0,0.808-0.257,1.475-0.77,2c-0.513,0.525-1.182,0.787-2.009,0.787
		c-0.833,0-1.508-0.262-2.026-0.787c-0.517-0.525-0.775-1.192-0.775-2v-1.182c0-0.806,0.258-1.471,0.773-1.997
		c0.516-0.526,1.188-0.79,2.018-0.79c0.824,0,1.495,0.263,2.012,0.79c0.518,0.526,0.776,1.192,0.776,1.997V121.906z
		 M145.233,120.715c0-0.469-0.11-0.854-0.331-1.155c-0.221-0.3-0.533-0.45-0.936-0.45c-0.412,0-0.727,0.149-0.944,0.449
		c-0.218,0.299-0.328,0.685-0.328,1.157v1.191c0,0.475,0.111,0.863,0.331,1.163c0.221,0.3,0.537,0.451,0.95,0.451
		c0.399,0,0.709-0.151,0.929-0.451c0.219-0.3,0.329-0.688,0.329-1.163V120.715z"/>
	<path fill="#FFFFFF" d="M149.166,122.082v2.517h-1.529v-6.567h2.526c0.76,0,1.364,0.177,1.809,0.528
		c0.445,0.352,0.668,0.833,0.668,1.443c0,0.34-0.09,0.632-0.268,0.875c-0.179,0.244-0.443,0.442-0.791,0.595
		c0.402,0.114,0.692,0.305,0.868,0.57c0.176,0.266,0.263,0.598,0.263,0.995v0.415c0,0.171,0.025,0.366,0.077,0.586
		c0.051,0.219,0.14,0.376,0.265,0.468v0.091h-1.57c-0.12-0.093-0.199-0.259-0.236-0.496c-0.038-0.238-0.057-0.457-0.057-0.659
		v-0.397c0-0.313-0.083-0.552-0.248-0.717s-0.407-0.248-0.726-0.248H149.166z M149.166,120.909h1.007c0.306,0,0.541-0.07,0.704-0.21
		c0.161-0.14,0.243-0.34,0.243-0.602c0-0.268-0.083-0.484-0.25-0.648c-0.166-0.163-0.401-0.246-0.705-0.246h-0.997V120.909z"/>
	<path fill="#FFFFFF" d="M157.659,124.598h-1.52v-6.567h1.52V124.598z"/>
	<path fill="#FFFFFF" d="M163.243,119.204h-1.732v5.394h-1.529v-5.394h-1.719v-1.173h4.98V119.204z"/>
	<path fill="#FFFFFF" d="M167.067,121.139c-0.192-0.271-0.335-0.518-0.431-0.744c-0.094-0.226-0.142-0.454-0.142-0.686
		c0-0.523,0.17-0.949,0.51-1.279c0.339-0.33,0.789-0.494,1.349-0.494c0.478,0,0.866,0.153,1.165,0.46
		c0.299,0.307,0.449,0.68,0.449,1.119c0,0.295-0.068,0.568-0.205,0.821c-0.137,0.252-0.322,0.463-0.557,0.631l-0.392,0.276
		l1.1,1.263c0.105-0.168,0.186-0.353,0.244-0.554c0.057-0.202,0.086-0.414,0.086-0.637h1.073c0,0.427-0.047,0.818-0.142,1.173
		s-0.246,0.671-0.453,0.947l0.993,1.141l-0.009,0.023h-1.664l-0.334-0.379c-0.262,0.162-0.522,0.281-0.782,0.359
		c-0.261,0.076-0.547,0.114-0.859,0.114c-0.655,0-1.178-0.171-1.565-0.514c-0.388-0.343-0.582-0.791-0.582-1.344
		c0-0.349,0.092-0.646,0.277-0.892c0.185-0.245,0.471-0.51,0.859-0.796L167.067,121.139z M168.168,123.521
		c0.129,0,0.259-0.014,0.39-0.041c0.13-0.027,0.259-0.07,0.385-0.127l-1.204-1.362l-0.041,0.026
		c-0.093,0.114-0.159,0.228-0.196,0.341c-0.038,0.112-0.056,0.236-0.056,0.372c0,0.231,0.07,0.421,0.21,0.569
		S167.966,123.521,168.168,123.521z M167.811,119.691c0,0.117,0.029,0.237,0.086,0.358c0.058,0.122,0.143,0.255,0.257,0.399
		l0.271-0.171c0.168-0.109,0.281-0.213,0.338-0.316c0.058-0.102,0.086-0.214,0.086-0.338c0-0.132-0.046-0.251-0.138-0.356
		c-0.092-0.106-0.212-0.158-0.363-0.158c-0.172,0-0.304,0.056-0.398,0.166C167.858,119.387,167.811,119.526,167.811,119.691z"/>
	<path fill="#FFFFFF" d="M174.685,124.598v-6.567h2.373c0.773,0,1.418,0.252,1.939,0.756c0.52,0.504,0.78,1.149,0.78,1.937v1.182
		c0,0.79-0.26,1.437-0.78,1.939c-0.52,0.502-1.166,0.754-1.939,0.754H174.685z M176.214,119.204v4.221h0.74
		c0.406,0,0.722-0.139,0.951-0.417c0.229-0.278,0.343-0.645,0.343-1.102v-1.191c0-0.454-0.114-0.82-0.343-1.096
		c-0.229-0.277-0.545-0.415-0.951-0.415H176.214z"/>
	<path fill="#FFFFFF" d="M182.344,124.598h-1.52v-6.567h1.52V124.598z"/>
	<path fill="#FFFFFF" d="M188.663,123.692c-0.223,0.264-0.546,0.498-0.97,0.699c-0.424,0.202-0.957,0.302-1.597,0.302
		c-0.811,0-1.471-0.249-1.978-0.749c-0.507-0.499-0.76-1.146-0.76-1.944v-1.371c0-0.79,0.247-1.437,0.742-1.939
		c0.495-0.502,1.131-0.754,1.911-0.754c0.844,0,1.477,0.195,1.898,0.586c0.421,0.391,0.66,0.925,0.718,1.601l-0.009,0.027h-1.43
		c-0.051-0.346-0.163-0.606-0.336-0.78c-0.173-0.175-0.436-0.262-0.791-0.262c-0.355,0-0.64,0.141-0.857,0.421
		c-0.217,0.281-0.325,0.644-0.325,1.09V122c0,0.457,0.107,0.824,0.32,1.103c0.213,0.278,0.513,0.417,0.897,0.417
		c0.28,0,0.5-0.023,0.659-0.068c0.159-0.045,0.285-0.105,0.379-0.18v-1.038h-1.033v-1.01h2.562V123.692z"/>
	<path fill="#FFFFFF" d="M191.216,124.598h-1.52v-6.567h1.52V124.598z"/>
	<path fill="#FFFFFF" d="M196.8,119.204h-1.732v5.394h-1.529v-5.394h-1.719v-1.173h4.98V119.204z"/>
	<path fill="#FFFFFF" d="M200.417,123.322h-2.07l-0.37,1.277h-1.534l2.12-6.567h1.638l2.124,6.567h-1.534L200.417,123.322z
		 M198.685,122.15h1.394l-0.686-2.351h-0.027L198.685,122.15z"/>
	<path fill="#FFFFFF" d="M204.318,123.426h2.828v1.173h-4.357v-6.567h1.529V123.426z"/>
	<path fill="#FFFFFF" d="M213.962,122.945c0-0.299-0.112-0.55-0.338-0.751c-0.226-0.202-0.626-0.372-1.2-0.509
		c-0.694-0.166-1.236-0.41-1.625-0.733c-0.39-0.322-0.585-0.728-0.585-1.216c0-0.512,0.21-0.94,0.629-1.283
		c0.42-0.344,0.963-0.516,1.631-0.516c0.719,0,1.291,0.197,1.716,0.591c0.426,0.394,0.631,0.851,0.616,1.37l-0.008,0.027h-0.848
		c0-0.384-0.127-0.696-0.382-0.933c-0.254-0.238-0.619-0.357-1.094-0.357c-0.442,0-0.781,0.1-1.017,0.3s-0.354,0.461-0.354,0.782
		c0,0.286,0.127,0.524,0.383,0.715c0.256,0.192,0.671,0.359,1.245,0.503c0.691,0.171,1.218,0.424,1.579,0.757
		c0.361,0.334,0.541,0.748,0.541,1.241c0,0.529-0.216,0.955-0.65,1.276c-0.433,0.322-0.998,0.483-1.696,0.483
		c-0.655,0-1.235-0.178-1.739-0.535c-0.503-0.356-0.748-0.832-0.733-1.427l0.009-0.027h0.848c0,0.421,0.155,0.741,0.464,0.96
		c0.31,0.22,0.693,0.33,1.15,0.33c0.449,0,0.803-0.094,1.064-0.282S213.962,123.268,213.962,122.945z"/>
	<path fill="#FFFFFF" d="M221.116,121.901c0,0.803-0.249,1.469-0.747,1.998c-0.498,0.529-1.143,0.793-1.937,0.793
		c-0.767,0-1.39-0.264-1.87-0.793c-0.479-0.53-0.719-1.196-0.719-1.998v-1.168c0-0.8,0.24-1.466,0.719-1.998
		c0.48-0.532,1.103-0.798,1.87-0.798c0.794,0,1.439,0.265,1.937,0.796c0.498,0.531,0.747,1.197,0.747,2V121.901z M220.227,120.724
		c0-0.601-0.162-1.094-0.487-1.479c-0.325-0.385-0.76-0.577-1.308-0.577c-0.518,0-0.93,0.192-1.238,0.577
		c-0.308,0.385-0.462,0.878-0.462,1.479v1.178c0,0.607,0.154,1.104,0.462,1.488c0.308,0.385,0.721,0.577,1.238,0.577
		c0.551,0,0.987-0.192,1.31-0.575c0.324-0.383,0.485-0.88,0.485-1.49V120.724z"/>
	<path fill="#FFFFFF" d="M223.33,123.9h3.107v0.699h-3.996v-6.567h0.889V123.9z"/>
	<path fill="#FFFFFF" d="M232.12,118.031v4.452c0,0.716-0.232,1.263-0.697,1.642c-0.465,0.379-1.071,0.568-1.82,0.568
		c-0.722,0-1.307-0.19-1.757-0.57c-0.45-0.381-0.674-0.926-0.674-1.639v-4.452h0.889v4.449c0,0.495,0.142,0.872,0.424,1.129
		c0.282,0.257,0.655,0.385,1.118,0.385c0.487,0,0.88-0.128,1.18-0.385c0.299-0.257,0.449-0.634,0.449-1.129v-4.449H232.12z"/>
	<path fill="#FFFFFF" d="M238.02,118.731h-2.111v5.868h-0.889v-5.868h-2.107v-0.7h5.106V118.731z"/>
	<path fill="#FFFFFF" d="M239.923,124.598h-0.893v-6.567h0.893V124.598z"/>
	<path fill="#FFFFFF" d="M246.567,121.901c0,0.803-0.249,1.469-0.747,1.998c-0.498,0.529-1.143,0.793-1.937,0.793
		c-0.767,0-1.39-0.264-1.87-0.793c-0.479-0.53-0.719-1.196-0.719-1.998v-1.168c0-0.8,0.24-1.466,0.719-1.998
		c0.48-0.532,1.103-0.798,1.87-0.798c0.794,0,1.439,0.265,1.937,0.796c0.498,0.531,0.747,1.197,0.747,2V121.901z M245.678,120.724
		c0-0.601-0.162-1.094-0.487-1.479c-0.325-0.385-0.76-0.577-1.308-0.577c-0.518,0-0.93,0.192-1.238,0.577
		c-0.308,0.385-0.462,0.878-0.462,1.479v1.178c0,0.607,0.154,1.104,0.462,1.488c0.308,0.385,0.721,0.577,1.238,0.577
		c0.551,0,0.987-0.192,1.31-0.575c0.324-0.383,0.485-0.88,0.485-1.49V120.724z"/>
	<path fill="#FFFFFF" d="M252.859,124.598h-0.889l-3.162-5.079l-0.026,0.009v5.07h-0.889v-6.567h0.889l3.161,5.069l0.027-0.008
		v-5.061h0.889V124.598z"/>
	<path fill="#FFFFFF" d="M258.059,122.945c0-0.299-0.112-0.55-0.338-0.751c-0.226-0.202-0.626-0.372-1.2-0.509
		c-0.694-0.166-1.236-0.41-1.625-0.733c-0.39-0.322-0.585-0.728-0.585-1.216c0-0.512,0.21-0.94,0.629-1.283
		c0.42-0.344,0.963-0.516,1.631-0.516c0.719,0,1.291,0.197,1.716,0.591c0.426,0.394,0.631,0.851,0.616,1.37l-0.008,0.027h-0.848
		c0-0.384-0.127-0.696-0.382-0.933c-0.254-0.238-0.619-0.357-1.094-0.357c-0.442,0-0.781,0.1-1.017,0.3
		c-0.236,0.2-0.354,0.461-0.354,0.782c0,0.286,0.128,0.524,0.383,0.715c0.256,0.192,0.671,0.359,1.245,0.503
		c0.691,0.171,1.218,0.424,1.579,0.757c0.361,0.334,0.541,0.748,0.541,1.241c0,0.529-0.216,0.955-0.65,1.276
		c-0.433,0.322-0.998,0.483-1.696,0.483c-0.655,0-1.235-0.178-1.739-0.535c-0.503-0.356-0.748-0.832-0.733-1.427l0.009-0.027h0.848
		c0,0.421,0.155,0.741,0.464,0.96c0.31,0.22,0.693,0.33,1.15,0.33c0.449,0,0.803-0.094,1.064-0.282S258.059,123.268,258.059,122.945
		z"/>
	<path fill="#FFFFFF" d="M263.476,124.598h-0.893v-6.567h0.893V124.598z"/>
	<path fill="#FFFFFF" d="M270.115,124.598h-0.889l-3.162-5.079l-0.026,0.009v5.07h-0.889v-6.567h0.889l3.161,5.069l0.027-0.008
		v-5.061h0.889V124.598z"/>
	<path fill="#FFFFFF" d="M278.675,122.492l0.009,0.026c0.011,0.617-0.205,1.133-0.65,1.55c-0.445,0.416-1.033,0.624-1.763,0.624
		c-0.743,0-1.349-0.263-1.816-0.789c-0.467-0.527-0.701-1.194-0.701-2.003v-1.168c0-0.808,0.233-1.477,0.701-2.005
		s1.073-0.791,1.816-0.791c0.742,0,1.333,0.197,1.772,0.593c0.439,0.396,0.653,0.92,0.641,1.571l-0.009,0.027h-0.853
		c0-0.46-0.135-0.824-0.405-1.092c-0.271-0.267-0.653-0.401-1.146-0.401c-0.497,0-0.892,0.2-1.187,0.6
		c-0.295,0.399-0.442,0.895-0.442,1.487v1.176c0,0.598,0.147,1.096,0.442,1.496c0.295,0.399,0.69,0.6,1.187,0.6
		c0.493,0,0.875-0.133,1.146-0.399c0.27-0.265,0.405-0.634,0.405-1.102H278.675z"/>
	<path fill="#FFFFFF" d="M283.782,121.554h-3.008v2.346h3.468v0.699h-4.356v-6.567h4.307v0.7h-3.419v2.124h3.008V121.554z"/>
	<path fill="#FFFFFF" d="M289.181,121.554h-3.008v2.346h3.468v0.699h-4.357v-6.567h4.307v0.7h-3.419v2.124h3.008V121.554z"/>
</g>
<rect x="117.855" y="86.966" fill="#FFFFFF" width="1.001" height="36.337"/>
</svg>
